<?xml version="1.0" encoding="UTF-8" standalone="no"?>
<!DOCTYPE svg PUBLIC "-//W3C//DTD SVG 1.1//EN"
 "http://www.w3.org/Graphics/SVG/1.1/DTD/svg11.dtd">
<!-- Generated by graphviz version 2.43.0 (0)
 -->
<!-- Title: packages_inkex Pages: 1 -->
<svg width="3147pt" height="980pt"
 viewBox="0.00 0.00 3146.50 980.00" xmlns="http://www.w3.org/2000/svg" xmlns:xlink="http://www.w3.org/1999/xlink">
<g id="graph0" class="graph" transform="scale(1 1) rotate(0) translate(4 976)">
<title>packages_inkex</title>
<polygon fill="white" stroke="transparent" points="-4,4 -4,-976 3142.5,-976 3142.5,4 -4,4"/>
<!-- inkex -->
<g id="node1" class="node">
<title>inkex</title>
<polygon fill="none" stroke="black" points="1572,-108 1517,-108 1517,-72 1572,-72 1572,-108"/>
<text text-anchor="middle" x="1544.5" y="-86.3" font-family="Times,serif" font-size="14.00">inkex</text>
</g>
<!-- inkex.colors -->
<g id="node4" class="node">
<title>inkex.colors</title>
<polygon fill="none" stroke="black" points="1514.5,-252 1412.5,-252 1412.5,-216 1514.5,-216 1514.5,-252"/>
<text text-anchor="middle" x="1463.5" y="-230.3" font-family="Times,serif" font-size="14.00">inkex.colors</text>
</g>
<!-- inkex&#45;&gt;inkex.colors -->
<g id="edge1" class="edge">
<title>inkex&#45;&gt;inkex.colors</title>
<path fill="none" stroke="black" d="M1534.73,-108.13C1520.68,-132.76 1494.67,-178.36 1478.27,-207.12"/>
<polygon fill="black" stroke="black" points="1473.31,-215.81 1474.35,-204.89 1475.78,-211.47 1478.26,-207.12 1478.26,-207.12 1478.26,-207.12 1475.78,-211.47 1482.17,-209.35 1473.31,-215.81 1473.31,-215.81"/>
</g>
<!-- inkex.deprecated -->
<g id="node9" class="node">
<title>inkex.deprecated</title>
<polygon fill="none" stroke="black" points="357.5,-684 217.5,-684 217.5,-648 357.5,-648 357.5,-684"/>
<text text-anchor="middle" x="287.5" y="-662.3" font-family="Times,serif" font-size="14.00">inkex.deprecated</text>
</g>
<!-- inkex&#45;&gt;inkex.deprecated -->
<g id="edge2" class="edge">
<title>inkex&#45;&gt;inkex.deprecated</title>
<path fill="none" stroke="black" d="M1516.91,-91.52C1345.06,-95.14 428.5,-119.72 428.5,-233 428.5,-233 428.5,-233 428.5,-523 428.5,-578.19 374.21,-619.56 333.01,-643.01"/>
<polygon fill="black" stroke="black" points="324.18,-647.88 330.76,-639.11 328.56,-645.47 332.93,-643.05 332.93,-643.05 332.93,-643.05 328.56,-645.47 335.11,-646.99 324.18,-647.88 324.18,-647.88"/>
</g>
<!-- inkex.elements -->
<g id="node13" class="node">
<title>inkex.elements</title>
<polygon fill="none" stroke="black" points="1201,-540 1076,-540 1076,-504 1201,-504 1201,-540"/>
<text text-anchor="middle" x="1138.5" y="-518.3" font-family="Times,serif" font-size="14.00">inkex.elements</text>
</g>
<!-- inkex&#45;&gt;inkex.elements -->
<g id="edge3" class="edge">
<title>inkex&#45;&gt;inkex.elements</title>
<path fill="none" stroke="black" d="M1516.88,-93.23C1381.39,-104.52 793.5,-157.86 793.5,-233 793.5,-233 793.5,-233 793.5,-379 793.5,-437.37 964.53,-483.94 1065.75,-506.39"/>
<polygon fill="black" stroke="black" points="1075.62,-508.55 1064.89,-510.81 1070.74,-507.48 1065.85,-506.41 1065.85,-506.41 1065.85,-506.41 1070.74,-507.48 1066.82,-502.02 1075.62,-508.55 1075.62,-508.55"/>
</g>
<!-- inkex.extensions -->
<g id="node26" class="node">
<title>inkex.extensions</title>
<polygon fill="none" stroke="black" points="2467.5,-180 2331.5,-180 2331.5,-144 2467.5,-144 2467.5,-180"/>
<text text-anchor="middle" x="2399.5" y="-158.3" font-family="Times,serif" font-size="14.00">inkex.extensions</text>
</g>
<!-- inkex&#45;&gt;inkex.extensions -->
<g id="edge4" class="edge">
<title>inkex&#45;&gt;inkex.extensions</title>
<path fill="none" stroke="black" d="M1572.08,-92.24C1669.53,-96.78 2006.66,-113.83 2283.5,-144 2295.71,-145.33 2308.62,-146.98 2321.21,-148.72"/>
<polygon fill="black" stroke="black" points="2331.22,-150.14 2320.68,-153.19 2326.26,-149.44 2321.31,-148.74 2321.31,-148.74 2321.31,-148.74 2326.26,-149.44 2321.94,-144.28 2331.22,-150.14 2331.22,-150.14"/>
</g>
<!-- inkex.paths -->
<g id="node38" class="node">
<title>inkex.paths</title>
<polygon fill="none" stroke="black" points="1658,-396 1559,-396 1559,-360 1658,-360 1658,-396"/>
<text text-anchor="middle" x="1608.5" y="-374.3" font-family="Times,serif" font-size="14.00">inkex.paths</text>
</g>
<!-- inkex&#45;&gt;inkex.paths -->
<g id="edge5" class="edge">
<title>inkex&#45;&gt;inkex.paths</title>
<path fill="none" stroke="black" d="M1548.31,-108.03C1559,-155.81 1589.34,-291.38 1602.4,-349.73"/>
<polygon fill="black" stroke="black" points="1604.63,-359.69 1598.05,-350.92 1603.54,-354.81 1602.44,-349.93 1602.44,-349.93 1602.44,-349.93 1603.54,-354.81 1606.83,-348.95 1604.63,-359.69 1604.63,-359.69"/>
</g>
<!-- inkex.styles -->
<g id="node47" class="node">
<title>inkex.styles</title>
<polygon fill="none" stroke="black" points="1029,-396 928,-396 928,-360 1029,-360 1029,-396"/>
<text text-anchor="middle" x="978.5" y="-374.3" font-family="Times,serif" font-size="14.00">inkex.styles</text>
</g>
<!-- inkex&#45;&gt;inkex.styles -->
<g id="edge6" class="edge">
<title>inkex&#45;&gt;inkex.styles</title>
<path fill="none" stroke="black" d="M1516.85,-90.49C1421.92,-90.43 1107.96,-104.57 977.5,-288 964.88,-305.74 966.46,-330.92 970.42,-349.97"/>
<polygon fill="black" stroke="black" points="972.8,-359.83 966.08,-351.16 971.63,-354.97 970.46,-350.11 970.46,-350.11 970.46,-350.11 971.63,-354.97 974.83,-349.06 972.8,-359.83 972.8,-359.83"/>
</g>
<!-- inkex.transforms -->
<g id="node57" class="node">
<title>inkex.transforms</title>
<polygon fill="none" stroke="black" points="2129.5,-468 1991.5,-468 1991.5,-432 2129.5,-432 2129.5,-468"/>
<text text-anchor="middle" x="2060.5" y="-446.3" font-family="Times,serif" font-size="14.00">inkex.transforms</text>
</g>
<!-- inkex&#45;&gt;inkex.transforms -->
<g id="edge7" class="edge">
<title>inkex&#45;&gt;inkex.transforms</title>
<path fill="none" stroke="black" d="M1572.33,-104.36C1672.36,-152.6 2009.5,-317.24 2041.5,-360 2054.78,-377.74 2059.21,-402.76 2060.5,-421.75"/>
<polygon fill="black" stroke="black" points="2060.94,-431.87 2056.01,-422.07 2060.72,-426.87 2060.51,-421.88 2060.51,-421.88 2060.51,-421.88 2060.72,-426.87 2065,-421.68 2060.94,-431.87 2060.94,-431.87"/>
</g>
<!-- inkex.utils -->
<g id="node61" class="node">
<title>inkex.utils</title>
<polygon fill="none" stroke="black" points="2301,-540 2210,-540 2210,-504 2301,-504 2301,-540"/>
<text text-anchor="middle" x="2255.5" y="-518.3" font-family="Times,serif" font-size="14.00">inkex.utils</text>
</g>
<!-- inkex&#45;&gt;inkex.utils -->
<g id="edge8" class="edge">
<title>inkex&#45;&gt;inkex.utils</title>
<path fill="none" stroke="black" d="M1572.06,-98.94C1603.93,-108.42 1657.77,-125.35 1702.5,-144 1780.61,-176.57 2243.08,-415.13 2253.5,-432 2264.82,-450.33 2264.4,-475.09 2261.68,-493.84"/>
<polygon fill="black" stroke="black" points="2259.93,-503.83 2257.22,-493.2 2260.79,-498.9 2261.65,-493.98 2261.65,-493.98 2261.65,-493.98 2260.79,-498.9 2266.09,-494.75 2259.93,-503.83 2259.93,-503.83"/>
</g>
<!-- inkex.base -->
<g id="node2" class="node">
<title>inkex.base</title>
<polygon fill="none" stroke="black" points="2583.5,-468 2491.5,-468 2491.5,-432 2583.5,-432 2583.5,-468"/>
<text text-anchor="middle" x="2537.5" y="-446.3" font-family="Times,serif" font-size="14.00">inkex.base</text>
</g>
<!-- inkex.elements._parser -->
<g id="node19" class="node">
<title>inkex.elements._parser</title>
<polygon fill="none" stroke="black" points="1608.5,-900 1426.5,-900 1426.5,-864 1608.5,-864 1608.5,-900"/>
<text text-anchor="middle" x="1517.5" y="-878.3" font-family="Times,serif" font-size="14.00">inkex.elements._parser</text>
</g>
<!-- inkex.base&#45;&gt;inkex.elements._parser -->
<g id="edge9" class="edge">
<title>inkex.base&#45;&gt;inkex.elements._parser</title>
<path fill="none" stroke="black" d="M2528.59,-468.42C2516,-494.7 2494.5,-546.38 2494.5,-593 2494.5,-593 2494.5,-593 2494.5,-739 2494.5,-826.8 1868.55,-865.02 1618.71,-876.78"/>
<polygon fill="black" stroke="black" points="1608.54,-877.26 1618.32,-872.29 1613.53,-877.02 1618.53,-876.79 1618.53,-876.79 1618.53,-876.79 1613.53,-877.02 1618.74,-881.29 1608.54,-877.26 1608.54,-877.26"/>
</g>
<!-- inkex.elements._utils -->
<g id="node25" class="node">
<title>inkex.elements._utils</title>
<polygon fill="none" stroke="black" points="1175,-972 1008,-972 1008,-936 1175,-936 1175,-972"/>
<text text-anchor="middle" x="1091.5" y="-950.3" font-family="Times,serif" font-size="14.00">inkex.elements._utils</text>
</g>
<!-- inkex.base&#45;&gt;inkex.elements._utils -->
<g id="edge10" class="edge">
<title>inkex.base&#45;&gt;inkex.elements._utils</title>
<path fill="none" stroke="black" d="M2537.1,-468.05C2536.52,-494.71 2535.5,-547.88 2535.5,-593 2535.5,-593 2535.5,-593 2535.5,-811 2535.5,-947.16 1505.45,-954.62 1185.29,-953.64"/>
<polygon fill="black" stroke="black" points="1175.11,-953.61 1185.13,-949.14 1180.11,-953.63 1185.11,-953.64 1185.11,-953.64 1185.11,-953.64 1180.11,-953.63 1185.1,-958.14 1175.11,-953.61 1175.11,-953.61"/>
</g>
<!-- inkex.interfaces.IElement -->
<g id="node35" class="node">
<title>inkex.interfaces.IElement</title>
<polygon fill="none" stroke="black" points="1419.5,-540 1219.5,-540 1219.5,-504 1419.5,-504 1419.5,-540"/>
<text text-anchor="middle" x="1319.5" y="-518.3" font-family="Times,serif" font-size="14.00">inkex.interfaces.IElement</text>
</g>
<!-- inkex.base&#45;&gt;inkex.interfaces.IElement -->
<g id="edge11" class="edge">
<title>inkex.base&#45;&gt;inkex.interfaces.IElement</title>
<path fill="none" stroke="black" d="M2491.27,-454C2435.08,-457.59 2337.36,-463.66 2253.5,-468 1890.29,-486.79 1795.42,-468.01 1429.6,-503.96"/>
<polygon fill="black" stroke="black" points="1419.53,-504.96 1429.04,-499.49 1424.5,-504.47 1429.48,-503.97 1429.48,-503.97 1429.48,-503.97 1424.5,-504.47 1429.92,-508.45 1419.53,-504.96 1419.53,-504.96"/>
</g>
<!-- inkex.localization -->
<g id="node37" class="node">
<title>inkex.localization</title>
<polygon fill="none" stroke="black" points="2459.5,-540 2319.5,-540 2319.5,-504 2459.5,-504 2459.5,-540"/>
<text text-anchor="middle" x="2389.5" y="-518.3" font-family="Times,serif" font-size="14.00">inkex.localization</text>
</g>
<!-- inkex.base&#45;&gt;inkex.localization -->
<g id="edge12" class="edge">
<title>inkex.base&#45;&gt;inkex.localization</title>
<path fill="none" stroke="black" d="M2501.3,-468.12C2481.24,-477.61 2456.13,-489.49 2434.79,-499.58"/>
<polygon fill="black" stroke="black" points="2425.59,-503.93 2432.7,-495.59 2430.11,-501.79 2434.63,-499.66 2434.63,-499.66 2434.63,-499.66 2430.11,-501.79 2436.55,-503.72 2425.59,-503.93 2425.59,-503.93"/>
</g>
<!-- inkex.base&#45;&gt;inkex.utils -->
<g id="edge13" class="edge">
<title>inkex.base&#45;&gt;inkex.utils</title>
<path fill="none" stroke="black" d="M2491.39,-464.38C2486.71,-465.65 2482.02,-466.87 2477.5,-468 2406.85,-485.61 2385.67,-484.87 2310.92,-504.02"/>
<polygon fill="black" stroke="black" points="2301.03,-506.59 2309.58,-499.72 2305.87,-505.33 2310.71,-504.08 2310.71,-504.08 2310.71,-504.08 2305.87,-505.33 2311.84,-508.43 2301.03,-506.59 2301.03,-506.59"/>
</g>
<!-- inkex.bezier -->
<g id="node3" class="node">
<title>inkex.bezier</title>
<polygon fill="none" stroke="black" points="2032.5,-396 1928.5,-396 1928.5,-360 2032.5,-360 2032.5,-396"/>
<text text-anchor="middle" x="1980.5" y="-374.3" font-family="Times,serif" font-size="14.00">inkex.bezier</text>
</g>
<!-- inkex.bezier&#45;&gt;inkex.localization -->
<g id="edge14" class="edge">
<title>inkex.bezier&#45;&gt;inkex.localization</title>
<path fill="none" stroke="black" d="M2032.51,-383.08C2088.73,-388.84 2180.13,-402.22 2253.5,-432 2293.61,-448.28 2334.48,-477.01 2360.8,-497.42"/>
<polygon fill="black" stroke="black" points="2368.82,-503.72 2358.17,-501.08 2364.89,-500.63 2360.96,-497.54 2360.96,-497.54 2360.96,-497.54 2364.89,-500.63 2363.74,-494 2368.82,-503.72 2368.82,-503.72"/>
</g>
<!-- inkex.bezier&#45;&gt;inkex.transforms -->
<g id="edge15" class="edge">
<title>inkex.bezier&#45;&gt;inkex.transforms</title>
<path fill="none" stroke="black" d="M2000.28,-396.3C2010.25,-405.03 2022.51,-415.76 2033.36,-425.25"/>
<polygon fill="black" stroke="black" points="2040.95,-431.9 2030.46,-428.7 2037.19,-428.6 2033.43,-425.31 2033.43,-425.31 2033.43,-425.31 2037.19,-428.6 2036.39,-421.92 2040.95,-431.9 2040.95,-431.9"/>
</g>
<!-- inkex.tween -->
<g id="node59" class="node">
<title>inkex.tween</title>
<polygon fill="none" stroke="black" points="1515,-324 1412,-324 1412,-288 1515,-288 1515,-324"/>
<text text-anchor="middle" x="1463.5" y="-302.3" font-family="Times,serif" font-size="14.00">inkex.tween</text>
</g>
<!-- inkex.colors&#45;&gt;inkex.tween -->
<g id="edge16" class="edge">
<title>inkex.colors&#45;&gt;inkex.tween</title>
<path fill="none" stroke="black" d="M1457.58,-252.3C1456.79,-260.02 1456.56,-269.29 1456.9,-277.89"/>
<polygon fill="black" stroke="black" points="1457.6,-287.9 1452.42,-278.23 1457.26,-282.91 1456.91,-277.92 1456.91,-277.92 1456.91,-277.92 1457.26,-282.91 1461.4,-277.61 1457.6,-287.9 1457.6,-287.9"/>
</g>
<!-- inkex.command -->
<g id="node5" class="node">
<title>inkex.command</title>
<polygon fill="none" stroke="black" points="2059.5,-252 1931.5,-252 1931.5,-216 2059.5,-216 2059.5,-252"/>
<text text-anchor="middle" x="1995.5" y="-230.3" font-family="Times,serif" font-size="14.00">inkex.command</text>
</g>
<!-- inkex.command&#45;&gt;inkex.elements -->
<g id="edge17" class="edge">
<title>inkex.command&#45;&gt;inkex.elements</title>
<path fill="none" stroke="black" d="M1931.41,-236.17C1784.96,-239.48 1429.7,-251.14 1316.5,-288 1227.09,-317.11 1195.44,-344.31 1161.5,-432 1153.65,-452.28 1147.64,-476.18 1143.74,-494.11"/>
<polygon fill="black" stroke="black" points="1141.68,-503.9 1139.33,-493.19 1142.71,-499.01 1143.74,-494.11 1143.74,-494.11 1143.74,-494.11 1142.71,-499.01 1148.14,-495.04 1141.68,-503.9 1141.68,-503.9"/>
</g>
<!-- inkex.css -->
<g id="node6" class="node">
<title>inkex.css</title>
<polygon fill="none" stroke="black" points="765.5,-468 683.5,-468 683.5,-432 765.5,-432 765.5,-468"/>
<text text-anchor="middle" x="724.5" y="-446.3" font-family="Times,serif" font-size="14.00">inkex.css</text>
</g>
<!-- inkex.css.compiler -->
<g id="node7" class="node">
<title>inkex.css.compiler</title>
<polygon fill="none" stroke="black" points="799,-540 650,-540 650,-504 799,-504 799,-540"/>
<text text-anchor="middle" x="724.5" y="-518.3" font-family="Times,serif" font-size="14.00">inkex.css.compiler</text>
</g>
<!-- inkex.css&#45;&gt;inkex.css.compiler -->
<g id="edge18" class="edge">
<title>inkex.css&#45;&gt;inkex.css.compiler</title>
<path fill="none" stroke="black" d="M724.5,-468.3C724.5,-476.02 724.5,-485.29 724.5,-493.89"/>
<polygon fill="black" stroke="black" points="724.5,-503.9 720,-493.9 724.5,-498.9 724.5,-493.9 724.5,-493.9 724.5,-493.9 724.5,-498.9 729,-493.9 724.5,-503.9 724.5,-503.9"/>
</g>
<!-- inkex.css.parser -->
<g id="node8" class="node">
<title>inkex.css.parser</title>
<polygon fill="none" stroke="black" points="689,-612 556,-612 556,-576 689,-576 689,-612"/>
<text text-anchor="middle" x="622.5" y="-590.3" font-family="Times,serif" font-size="14.00">inkex.css.parser</text>
</g>
<!-- inkex.css.compiler&#45;&gt;inkex.css.parser -->
<g id="edge19" class="edge">
<title>inkex.css.compiler&#45;&gt;inkex.css.parser</title>
<path fill="none" stroke="black" d="M699.55,-540.12C686.46,-549.11 670.24,-560.24 656.06,-569.97"/>
<polygon fill="black" stroke="black" points="647.55,-575.81 653.25,-566.44 651.67,-572.98 655.79,-570.15 655.79,-570.15 655.79,-570.15 651.67,-572.98 658.34,-573.86 647.55,-575.81 647.55,-575.81"/>
</g>
<!-- inkex.deprecated.deprecatedeffect -->
<g id="node10" class="node">
<title>inkex.deprecated.deprecatedeffect</title>
<polygon fill="none" stroke="black" points="499.5,-756 235.5,-756 235.5,-720 499.5,-720 499.5,-756"/>
<text text-anchor="middle" x="367.5" y="-734.3" font-family="Times,serif" font-size="14.00">inkex.deprecated.deprecatedeffect</text>
</g>
<!-- inkex.deprecated&#45;&gt;inkex.deprecated.deprecatedeffect -->
<g id="edge20" class="edge">
<title>inkex.deprecated&#45;&gt;inkex.deprecated.deprecatedeffect</title>
<path fill="none" stroke="black" d="M307.28,-684.3C317.25,-693.03 329.51,-703.76 340.36,-713.25"/>
<polygon fill="black" stroke="black" points="347.95,-719.9 337.46,-716.7 344.19,-716.6 340.43,-713.31 340.43,-713.31 340.43,-713.31 344.19,-716.6 343.39,-709.92 347.95,-719.9 347.95,-719.9"/>
</g>
<!-- inkex.deprecated.main -->
<g id="node11" class="node">
<title>inkex.deprecated.main</title>
<polygon fill="none" stroke="black" points="179,-756 0,-756 0,-720 179,-720 179,-756"/>
<text text-anchor="middle" x="89.5" y="-734.3" font-family="Times,serif" font-size="14.00">inkex.deprecated.main</text>
</g>
<!-- inkex.deprecated&#45;&gt;inkex.deprecated.main -->
<g id="edge21" class="edge">
<title>inkex.deprecated&#45;&gt;inkex.deprecated.main</title>
<path fill="none" stroke="black" d="M239.32,-684.03C211.65,-693.81 176.72,-706.16 147.55,-716.48"/>
<polygon fill="black" stroke="black" points="137.9,-719.89 145.83,-712.31 142.61,-718.22 147.33,-716.56 147.33,-716.56 147.33,-716.56 142.61,-718.22 148.83,-720.8 137.9,-719.89 137.9,-719.89"/>
</g>
<!-- inkex.deprecated.meta -->
<g id="node12" class="node">
<title>inkex.deprecated.meta</title>
<polygon fill="none" stroke="black" points="377.5,-828 197.5,-828 197.5,-792 377.5,-792 377.5,-828"/>
<text text-anchor="middle" x="287.5" y="-806.3" font-family="Times,serif" font-size="14.00">inkex.deprecated.meta</text>
</g>
<!-- inkex.deprecated&#45;&gt;inkex.deprecated.meta -->
<g id="edge22" class="edge">
<title>inkex.deprecated&#45;&gt;inkex.deprecated.meta</title>
<path fill="none" stroke="black" d="M258.46,-684.16C246.18,-693.13 233.19,-705.32 226.5,-720 219.86,-734.56 219.86,-741.44 226.5,-756 231.73,-767.47 240.8,-777.42 250.37,-785.5"/>
<polygon fill="black" stroke="black" points="258.46,-791.84 247.81,-789.21 254.53,-788.75 250.59,-785.67 250.59,-785.67 250.59,-785.67 254.53,-788.75 253.37,-782.13 258.46,-791.84 258.46,-791.84"/>
</g>
<!-- inkex.deprecated.deprecatedeffect&#45;&gt;inkex.deprecated.meta -->
<g id="edge23" class="edge">
<title>inkex.deprecated.deprecatedeffect&#45;&gt;inkex.deprecated.meta</title>
<path fill="none" stroke="black" d="M347.72,-756.3C337.75,-765.03 325.49,-775.76 314.64,-785.25"/>
<polygon fill="black" stroke="black" points="307.05,-791.9 311.61,-781.92 310.81,-788.6 314.57,-785.31 314.57,-785.31 314.57,-785.31 310.81,-788.6 317.54,-788.7 307.05,-791.9 307.05,-791.9"/>
</g>
<!-- inkex.deprecated.main&#45;&gt;inkex.deprecated.meta -->
<g id="edge24" class="edge">
<title>inkex.deprecated.main&#45;&gt;inkex.deprecated.meta</title>
<path fill="none" stroke="black" d="M137.68,-756.03C165.35,-765.81 200.28,-778.16 229.45,-788.48"/>
<polygon fill="black" stroke="black" points="239.1,-791.89 228.17,-792.8 234.39,-790.22 229.67,-788.56 229.67,-788.56 229.67,-788.56 234.39,-790.22 231.17,-784.31 239.1,-791.89 239.1,-791.89"/>
</g>
<!-- inkex.elements._base -->
<g id="node14" class="node">
<title>inkex.elements._base</title>
<polygon fill="none" stroke="black" points="1112,-828 943,-828 943,-792 1112,-792 1112,-828"/>
<text text-anchor="middle" x="1027.5" y="-806.3" font-family="Times,serif" font-size="14.00">inkex.elements._base</text>
</g>
<!-- inkex.elements&#45;&gt;inkex.elements._base -->
<g id="edge25" class="edge">
<title>inkex.elements&#45;&gt;inkex.elements._base</title>
<path fill="none" stroke="black" d="M1135.99,-540.01C1132.69,-558.65 1125.71,-588.96 1112.5,-612 1101.55,-631.09 1090.59,-629.61 1078.5,-648 1059.36,-677.11 1058.25,-686.86 1047.5,-720 1040.91,-740.3 1035.72,-763.9 1032.27,-781.69"/>
<polygon fill="black" stroke="black" points="1030.41,-791.68 1027.82,-781.03 1031.32,-786.77 1032.24,-781.85 1032.24,-781.85 1032.24,-781.85 1031.32,-786.77 1036.67,-782.68 1030.41,-791.68 1030.41,-791.68"/>
</g>
<!-- inkex.elements._filters -->
<g id="node15" class="node">
<title>inkex.elements._filters</title>
<polygon fill="none" stroke="black" points="1072.5,-612 894.5,-612 894.5,-576 1072.5,-576 1072.5,-612"/>
<text text-anchor="middle" x="983.5" y="-590.3" font-family="Times,serif" font-size="14.00">inkex.elements._filters</text>
</g>
<!-- inkex.elements&#45;&gt;inkex.elements._filters -->
<g id="edge26" class="edge">
<title>inkex.elements&#45;&gt;inkex.elements._filters</title>
<path fill="none" stroke="black" d="M1100.58,-540.12C1079.49,-549.65 1053.04,-561.59 1030.63,-571.72"/>
<polygon fill="black" stroke="black" points="1021.29,-575.93 1028.56,-567.71 1025.85,-573.87 1030.41,-571.82 1030.41,-571.82 1030.41,-571.82 1025.85,-573.87 1032.26,-575.92 1021.29,-575.93 1021.29,-575.93"/>
</g>
<!-- inkex.elements._groups -->
<g id="node16" class="node">
<title>inkex.elements._groups</title>
<polygon fill="none" stroke="black" points="1272,-756 1087,-756 1087,-720 1272,-720 1272,-756"/>
<text text-anchor="middle" x="1179.5" y="-734.3" font-family="Times,serif" font-size="14.00">inkex.elements._groups</text>
</g>
<!-- inkex.elements&#45;&gt;inkex.elements._groups -->
<g id="edge27" class="edge">
<title>inkex.elements&#45;&gt;inkex.elements._groups</title>
<path fill="none" stroke="black" d="M1163.62,-540.02C1192.59,-561.33 1238.64,-600.84 1257.5,-648 1263.44,-662.86 1264.99,-669.86 1257.5,-684 1250.9,-696.46 1239.92,-706.53 1228.25,-714.41"/>
<polygon fill="black" stroke="black" points="1219.68,-719.77 1225.77,-710.65 1223.92,-717.12 1228.16,-714.47 1228.16,-714.47 1228.16,-714.47 1223.92,-717.12 1230.55,-718.29 1219.68,-719.77 1219.68,-719.77"/>
</g>
<!-- inkex.elements._image -->
<g id="node17" class="node">
<title>inkex.elements._image</title>
<polygon fill="none" stroke="black" points="1530,-828 1351,-828 1351,-792 1530,-792 1530,-828"/>
<text text-anchor="middle" x="1440.5" y="-806.3" font-family="Times,serif" font-size="14.00">inkex.elements._image</text>
</g>
<!-- inkex.elements&#45;&gt;inkex.elements._image -->
<g id="edge28" class="edge">
<title>inkex.elements&#45;&gt;inkex.elements._image</title>
<path fill="none" stroke="black" d="M1201.26,-538.17C1204.38,-538.82 1207.47,-539.43 1210.5,-540 1266.74,-550.59 1423.61,-537.01 1465.5,-576 1495.21,-603.65 1512.55,-718.72 1496.5,-756 1491.71,-767.13 1483.31,-777.01 1474.45,-785.14"/>
<polygon fill="black" stroke="black" points="1466.62,-791.82 1471.31,-781.9 1470.43,-788.57 1474.23,-785.32 1474.23,-785.32 1474.23,-785.32 1470.43,-788.57 1477.15,-788.75 1466.62,-791.82 1466.62,-791.82"/>
</g>
<!-- inkex.elements._meta -->
<g id="node18" class="node">
<title>inkex.elements._meta</title>
<polygon fill="none" stroke="black" points="803.5,-756 631.5,-756 631.5,-720 803.5,-720 803.5,-756"/>
<text text-anchor="middle" x="717.5" y="-734.3" font-family="Times,serif" font-size="14.00">inkex.elements._meta</text>
</g>
<!-- inkex.elements&#45;&gt;inkex.elements._meta -->
<g id="edge29" class="edge">
<title>inkex.elements&#45;&gt;inkex.elements._meta</title>
<path fill="none" stroke="black" d="M1075.9,-523.67C987.93,-528.25 829.26,-550.53 746.5,-648 731.68,-665.46 724.39,-690.66 720.83,-709.79"/>
<polygon fill="black" stroke="black" points="719.21,-719.71 716.38,-709.12 720.01,-714.78 720.82,-709.84 720.82,-709.84 720.82,-709.84 720.01,-714.78 725.26,-710.57 719.21,-719.71 719.21,-719.71"/>
</g>
<!-- inkex.elements&#45;&gt;inkex.elements._parser -->
<g id="edge30" class="edge">
<title>inkex.elements&#45;&gt;inkex.elements._parser</title>
<path fill="none" stroke="black" d="M1201.25,-538.22C1204.37,-538.85 1207.47,-539.45 1210.5,-540 1272.22,-551.22 1442.56,-535.53 1490.5,-576 1516.07,-597.59 1534.86,-751.41 1538.5,-792 1539.93,-807.94 1541.5,-812.28 1538.5,-828 1536.79,-836.94 1533.6,-846.3 1530.21,-854.63"/>
<polygon fill="black" stroke="black" points="1526.22,-863.83 1526.07,-852.87 1528.21,-859.25 1530.2,-854.66 1530.2,-854.66 1530.2,-854.66 1528.21,-859.25 1534.33,-856.45 1526.22,-863.83 1526.22,-863.83"/>
</g>
<!-- inkex.elements._polygons -->
<g id="node20" class="node">
<title>inkex.elements._polygons</title>
<polygon fill="none" stroke="black" points="1367.5,-900 1167.5,-900 1167.5,-864 1367.5,-864 1367.5,-900"/>
<text text-anchor="middle" x="1267.5" y="-878.3" font-family="Times,serif" font-size="14.00">inkex.elements._polygons</text>
</g>
<!-- inkex.elements&#45;&gt;inkex.elements._polygons -->
<g id="edge31" class="edge">
<title>inkex.elements&#45;&gt;inkex.elements._polygons</title>
<path fill="none" stroke="black" d="M1201.29,-539.12C1280.3,-563.29 1411.9,-617.44 1463.5,-720 1470.69,-734.29 1473.08,-743.18 1463.5,-756 1429.65,-801.28 1388.72,-760.92 1341.5,-792 1334.68,-796.49 1306.66,-831.19 1287.13,-855.9"/>
<polygon fill="black" stroke="black" points="1280.88,-863.85 1283.53,-853.21 1283.97,-859.92 1287.06,-855.99 1287.06,-855.99 1287.06,-855.99 1283.97,-859.92 1290.6,-858.77 1280.88,-863.85 1280.88,-863.85"/>
</g>
<!-- inkex.elements._svg -->
<g id="node22" class="node">
<title>inkex.elements._svg</title>
<polygon fill="none" stroke="black" points="917,-684 756,-684 756,-648 917,-648 917,-684"/>
<text text-anchor="middle" x="836.5" y="-662.3" font-family="Times,serif" font-size="14.00">inkex.elements._svg</text>
</g>
<!-- inkex.elements&#45;&gt;inkex.elements._svg -->
<g id="edge32" class="edge">
<title>inkex.elements&#45;&gt;inkex.elements._svg</title>
<path fill="none" stroke="black" d="M1132.2,-540.36C1123.85,-560.8 1107.12,-594.2 1081.5,-612 1036.53,-643.24 976.57,-656.57 927.23,-662.06"/>
<polygon fill="black" stroke="black" points="917.19,-663.08 926.68,-657.59 922.17,-662.57 927.14,-662.07 927.14,-662.07 927.14,-662.07 922.17,-662.57 927.6,-666.54 917.19,-663.08 917.19,-663.08"/>
</g>
<!-- inkex.elements._text -->
<g id="node23" class="node">
<title>inkex.elements._text</title>
<polygon fill="none" stroke="black" points="1454.5,-756 1290.5,-756 1290.5,-720 1454.5,-720 1454.5,-756"/>
<text text-anchor="middle" x="1372.5" y="-734.3" font-family="Times,serif" font-size="14.00">inkex.elements._text</text>
</g>
<!-- inkex.elements&#45;&gt;inkex.elements._text -->
<g id="edge33" class="edge">
<title>inkex.elements&#45;&gt;inkex.elements._text</title>
<path fill="none" stroke="black" d="M1177.79,-540.05C1196.58,-549.22 1218.79,-561.6 1236.5,-576 1286.41,-616.57 1331.9,-677.34 1355.51,-711.44"/>
<polygon fill="black" stroke="black" points="1361.3,-719.91 1351.94,-714.19 1358.48,-715.78 1355.66,-711.65 1355.66,-711.65 1355.66,-711.65 1358.48,-715.78 1359.37,-709.11 1361.3,-719.91 1361.3,-719.91"/>
</g>
<!-- inkex.elements._use -->
<g id="node24" class="node">
<title>inkex.elements._use</title>
<polygon fill="none" stroke="black" points="1249,-684 1088,-684 1088,-648 1249,-648 1249,-684"/>
<text text-anchor="middle" x="1168.5" y="-662.3" font-family="Times,serif" font-size="14.00">inkex.elements._use</text>
</g>
<!-- inkex.elements&#45;&gt;inkex.elements._use -->
<g id="edge34" class="edge">
<title>inkex.elements&#45;&gt;inkex.elements._use</title>
<path fill="none" stroke="black" d="M1143.39,-540.1C1146.26,-550.44 1149.82,-563.92 1152.5,-576 1157.06,-596.56 1161.23,-620.02 1164.17,-637.68"/>
<polygon fill="black" stroke="black" points="1165.84,-647.86 1159.78,-638.71 1165.03,-642.92 1164.22,-637.99 1164.22,-637.99 1164.22,-637.99 1165.03,-642.92 1168.66,-637.26 1165.84,-647.86 1165.84,-647.86"/>
</g>
<!-- inkex.elements&#45;&gt;inkex.elements._utils -->
<g id="edge35" class="edge">
<title>inkex.elements&#45;&gt;inkex.elements._utils</title>
<path fill="none" stroke="black" d="M1075.86,-522.31C1002.46,-523.72 878.66,-533.11 782.5,-576 690.82,-616.89 651.23,-629.17 608.5,-720 567.57,-807 641.1,-859.94 728.5,-900 775.1,-921.36 906.61,-936.81 997.83,-945.34"/>
<polygon fill="black" stroke="black" points="1007.91,-946.27 997.54,-949.83 1002.93,-945.81 997.96,-945.35 997.96,-945.35 997.96,-945.35 1002.93,-945.81 998.37,-940.87 1007.91,-946.27 1007.91,-946.27"/>
</g>
<!-- inkex.elements._base&#45;&gt;inkex.elements._parser -->
<g id="edge36" class="edge">
<title>inkex.elements._base&#45;&gt;inkex.elements._parser</title>
<path fill="none" stroke="black" d="M1112.01,-823.07C1196.45,-835.14 1326.31,-853.69 1416.22,-866.53"/>
<polygon fill="black" stroke="black" points="1426.16,-867.95 1415.62,-870.99 1421.21,-867.24 1416.26,-866.54 1416.26,-866.54 1416.26,-866.54 1421.21,-867.24 1416.9,-862.08 1426.16,-867.95 1426.16,-867.95"/>
</g>
<!-- inkex.elements._base&#45;&gt;inkex.elements._polygons -->
<g id="edge37" class="edge">
<title>inkex.elements._base&#45;&gt;inkex.elements._polygons</title>
<path fill="none" stroke="black" d="M1080.02,-828.03C1113.23,-838.03 1156.59,-850.7 1193.28,-861.15"/>
<polygon fill="black" stroke="black" points="1202.94,-863.89 1192.09,-865.49 1198.13,-862.52 1193.32,-861.16 1193.32,-861.16 1193.32,-861.16 1198.13,-862.52 1194.55,-856.83 1202.94,-863.89 1202.94,-863.89"/>
</g>
<!-- inkex.elements._selected -->
<g id="node21" class="node">
<title>inkex.elements._selected</title>
<polygon fill="none" stroke="black" points="1064,-900 869,-900 869,-864 1064,-864 1064,-900"/>
<text text-anchor="middle" x="966.5" y="-878.3" font-family="Times,serif" font-size="14.00">inkex.elements._selected</text>
</g>
<!-- inkex.elements._base&#45;&gt;inkex.elements._selected -->
<g id="edge38" class="edge">
<title>inkex.elements._base&#45;&gt;inkex.elements._selected</title>
<path fill="none" stroke="black" d="M1012.42,-828.3C1005.11,-836.7 996.19,-846.93 988.16,-856.14"/>
<polygon fill="black" stroke="black" points="981.41,-863.9 984.58,-853.4 984.69,-860.13 987.98,-856.36 987.98,-856.36 987.98,-856.36 984.69,-860.13 991.37,-859.31 981.41,-863.9 981.41,-863.9"/>
</g>
<!-- inkex.elements._base&#45;&gt;inkex.elements._utils -->
<g id="edge39" class="edge">
<title>inkex.elements._base&#45;&gt;inkex.elements._utils</title>
<path fill="none" stroke="black" d="M1045.79,-828.03C1055.13,-837.71 1065.89,-850.57 1072.5,-864 1082.06,-883.44 1086.83,-907.58 1089.2,-925.81"/>
<polygon fill="black" stroke="black" points="1090.33,-935.79 1084.73,-926.36 1089.77,-930.82 1089.2,-925.85 1089.2,-925.85 1089.2,-925.85 1089.77,-930.82 1093.67,-925.34 1090.33,-935.79 1090.33,-935.79"/>
</g>
<!-- inkex.elements._filters&#45;&gt;inkex.elements._base -->
<g id="edge40" class="edge">
<title>inkex.elements._filters&#45;&gt;inkex.elements._base</title>
<path fill="none" stroke="black" d="M984.85,-612.16C987.45,-641.86 994.13,-704.58 1007.5,-756 1009.75,-764.66 1012.93,-773.86 1016.09,-782.12"/>
<polygon fill="black" stroke="black" points="1019.88,-791.64 1012,-784.01 1018.03,-786.99 1016.18,-782.35 1016.18,-782.35 1016.18,-782.35 1018.03,-786.99 1020.36,-780.68 1019.88,-791.64 1019.88,-791.64"/>
</g>
<!-- inkex.elements._filters&#45;&gt;inkex.elements._groups -->
<g id="edge41" class="edge">
<title>inkex.elements._filters&#45;&gt;inkex.elements._groups</title>
<path fill="none" stroke="black" d="M999.13,-612.21C1017.06,-631.29 1047.92,-662.26 1078.5,-684 1094.98,-695.71 1114.38,-706.51 1131.74,-715.27"/>
<polygon fill="black" stroke="black" points="1141.15,-719.91 1130.19,-719.52 1136.67,-717.7 1132.19,-715.48 1132.19,-715.48 1132.19,-715.48 1136.67,-717.7 1134.18,-711.45 1141.15,-719.91 1141.15,-719.91"/>
</g>
<!-- inkex.elements._filters&#45;&gt;inkex.elements._svg -->
<g id="edge132" class="edge">
<title>inkex.elements._filters&#45;&gt;inkex.elements._svg</title>
<path fill="none" stroke="black" stroke-dasharray="5,2" d="M947.54,-612.12C927.62,-621.61 902.68,-633.49 881.48,-643.58"/>
<polygon fill="black" stroke="black" points="872.34,-647.93 879.44,-639.57 876.86,-645.78 881.37,-643.63 881.37,-643.63 881.37,-643.63 876.86,-645.78 883.31,-647.7 872.34,-647.93 872.34,-647.93"/>
</g>
<!-- inkex.elements._filters&#45;&gt;inkex.elements._utils -->
<g id="edge42" class="edge">
<title>inkex.elements._filters&#45;&gt;inkex.elements._utils</title>
<path fill="none" stroke="black" d="M894.25,-600.05C769.46,-611.11 564.29,-646.08 622.5,-756 693.92,-890.85 882.58,-933.41 997.69,-946.83"/>
<polygon fill="black" stroke="black" points="1007.9,-947.97 997.47,-951.33 1002.94,-947.42 997.97,-946.86 997.97,-946.86 997.97,-946.86 1002.94,-947.42 998.46,-942.39 1007.9,-947.97 1007.9,-947.97"/>
</g>
<!-- inkex.elements._groups&#45;&gt;inkex.elements._base -->
<g id="edge43" class="edge">
<title>inkex.elements._groups&#45;&gt;inkex.elements._base</title>
<path fill="none" stroke="black" d="M1142.32,-756.12C1121.63,-765.65 1095.7,-777.59 1073.72,-787.72"/>
<polygon fill="black" stroke="black" points="1064.56,-791.93 1071.76,-783.66 1069.1,-789.84 1073.65,-787.75 1073.65,-787.75 1073.65,-787.75 1069.1,-789.84 1075.53,-791.84 1064.56,-791.93 1064.56,-791.93"/>
</g>
<!-- inkex.elements._groups&#45;&gt;inkex.elements._polygons -->
<g id="edge44" class="edge">
<title>inkex.elements._groups&#45;&gt;inkex.elements._polygons</title>
<path fill="none" stroke="black" d="M1190.11,-756.13C1205.38,-780.76 1233.64,-826.36 1251.46,-855.12"/>
<polygon fill="black" stroke="black" points="1256.85,-863.81 1247.75,-857.68 1254.21,-859.56 1251.58,-855.31 1251.58,-855.31 1251.58,-855.31 1254.21,-859.56 1255.4,-852.94 1256.85,-863.81 1256.85,-863.81"/>
</g>
<!-- inkex.elements._groups&#45;&gt;inkex.elements._utils -->
<g id="edge45" class="edge">
<title>inkex.elements._groups&#45;&gt;inkex.elements._utils</title>
<path fill="none" stroke="black" d="M1172.45,-756.15C1157.13,-793.4 1120.72,-881.93 1102.41,-926.46"/>
<polygon fill="black" stroke="black" points="1098.59,-935.77 1098.23,-924.81 1100.49,-931.14 1102.39,-926.52 1102.39,-926.52 1102.39,-926.52 1100.49,-931.14 1106.55,-928.23 1098.59,-935.77 1098.59,-935.77"/>
</g>
<!-- inkex.elements._image&#45;&gt;inkex.elements._polygons -->
<g id="edge46" class="edge">
<title>inkex.elements._image&#45;&gt;inkex.elements._polygons</title>
<path fill="none" stroke="black" d="M1398.18,-828.12C1374.32,-837.78 1344.33,-849.91 1319.1,-860.12"/>
<polygon fill="black" stroke="black" points="1309.68,-863.93 1317.27,-856.01 1314.32,-862.06 1318.95,-860.18 1318.95,-860.18 1318.95,-860.18 1314.32,-862.06 1320.64,-864.35 1309.68,-863.93 1309.68,-863.93"/>
</g>
<!-- inkex.elements._meta&#45;&gt;inkex.deprecated.meta -->
<g id="edge47" class="edge">
<title>inkex.elements._meta&#45;&gt;inkex.deprecated.meta</title>
<path fill="none" stroke="black" d="M631.26,-753.04C561.01,-764.47 461.73,-780.64 387.91,-792.65"/>
<polygon fill="black" stroke="black" points="377.67,-794.32 386.82,-788.27 382.61,-793.52 387.54,-792.71 387.54,-792.71 387.54,-792.71 382.61,-793.52 388.27,-797.16 377.67,-794.32 377.67,-794.32"/>
</g>
<!-- inkex.elements._meta&#45;&gt;inkex.elements._base -->
<g id="edge48" class="edge">
<title>inkex.elements._meta&#45;&gt;inkex.elements._base</title>
<path fill="none" stroke="black" d="M792.94,-756.03C838.03,-766.22 895.45,-779.18 942.19,-789.74"/>
<polygon fill="black" stroke="black" points="951.99,-791.95 941.25,-794.14 947.12,-790.85 942.24,-789.75 942.24,-789.75 942.24,-789.75 947.12,-790.85 943.23,-785.36 951.99,-791.95 951.99,-791.95"/>
</g>
<!-- inkex.elements._parser&#45;&gt;inkex.elements._utils -->
<g id="edge49" class="edge">
<title>inkex.elements._parser&#45;&gt;inkex.elements._utils</title>
<path fill="none" stroke="black" d="M1426.37,-897.97C1355.29,-909.65 1256.92,-925.82 1185.19,-937.6"/>
<polygon fill="black" stroke="black" points="1175.25,-939.24 1184.39,-933.18 1180.19,-938.43 1185.12,-937.62 1185.12,-937.62 1185.12,-937.62 1180.19,-938.43 1185.85,-942.06 1175.25,-939.24 1175.25,-939.24"/>
</g>
<!-- inkex.elements._polygons&#45;&gt;inkex.elements._base -->
<g id="edge50" class="edge">
<title>inkex.elements._polygons&#45;&gt;inkex.elements._base</title>
<path fill="none" stroke="black" d="M1214.73,-863.89C1181.47,-853.88 1138.1,-841.21 1101.44,-830.77"/>
<polygon fill="black" stroke="black" points="1091.79,-828.03 1102.64,-826.44 1096.6,-829.4 1101.41,-830.76 1101.41,-830.76 1101.41,-830.76 1096.6,-829.4 1100.18,-835.09 1091.79,-828.03 1091.79,-828.03"/>
</g>
<!-- inkex.elements._polygons&#45;&gt;inkex.elements._utils -->
<g id="edge51" class="edge">
<title>inkex.elements._polygons&#45;&gt;inkex.elements._utils</title>
<path fill="none" stroke="black" d="M1224.45,-900.12C1200.17,-909.78 1169.66,-921.91 1143.99,-932.12"/>
<polygon fill="black" stroke="black" points="1134.41,-935.93 1142.04,-928.05 1139.06,-934.08 1143.71,-932.24 1143.71,-932.24 1143.71,-932.24 1139.06,-934.08 1145.37,-936.42 1134.41,-935.93 1134.41,-935.93"/>
</g>
<!-- inkex.elements._selected&#45;&gt;inkex.elements._utils -->
<g id="edge52" class="edge">
<title>inkex.elements._selected&#45;&gt;inkex.elements._utils</title>
<path fill="none" stroke="black" d="M997.08,-900.12C1013.57,-909.36 1034.12,-920.87 1051.84,-930.79"/>
<polygon fill="black" stroke="black" points="1060.8,-935.81 1049.88,-934.85 1056.44,-933.37 1052.08,-930.92 1052.08,-930.92 1052.08,-930.92 1056.44,-933.37 1054.28,-927 1060.8,-935.81 1060.8,-935.81"/>
</g>
<!-- inkex.elements._svg&#45;&gt;inkex.elements._base -->
<g id="edge53" class="edge">
<title>inkex.elements._svg&#45;&gt;inkex.elements._base</title>
<path fill="none" stroke="black" d="M852.22,-684.09C870.22,-703.07 901.16,-733.94 931.5,-756 947.35,-767.52 965.98,-778.35 982.58,-787.18"/>
<polygon fill="black" stroke="black" points="991.57,-791.86 980.62,-791.23 987.14,-789.55 982.7,-787.24 982.7,-787.24 982.7,-787.24 987.14,-789.55 984.78,-783.25 991.57,-791.86 991.57,-791.86"/>
</g>
<!-- inkex.elements._svg&#45;&gt;inkex.elements._meta -->
<g id="edge54" class="edge">
<title>inkex.elements._svg&#45;&gt;inkex.elements._meta</title>
<path fill="none" stroke="black" d="M807.39,-684.12C791.83,-693.28 772.48,-704.66 755.72,-714.52"/>
<polygon fill="black" stroke="black" points="746.72,-719.81 753.06,-710.86 751.03,-717.28 755.34,-714.74 755.34,-714.74 755.34,-714.74 751.03,-717.28 757.62,-718.62 746.72,-719.81 746.72,-719.81"/>
</g>
<!-- inkex.elements._svg&#45;&gt;inkex.elements._selected -->
<g id="edge55" class="edge">
<title>inkex.elements._svg&#45;&gt;inkex.elements._selected</title>
<path fill="none" stroke="black" d="M845.8,-684.23C855.63,-702.28 871.72,-731.38 886.5,-756 907.4,-790.83 932.9,-830.16 949.4,-855.24"/>
<polygon fill="black" stroke="black" points="955.05,-863.81 945.79,-857.94 952.3,-859.63 949.54,-855.46 949.54,-855.46 949.54,-855.46 952.3,-859.63 953.3,-852.98 955.05,-863.81 955.05,-863.81"/>
</g>
<!-- inkex.elements._svg&#45;&gt;inkex.elements._utils -->
<g id="edge56" class="edge">
<title>inkex.elements._svg&#45;&gt;inkex.elements._utils</title>
<path fill="none" stroke="black" d="M832.18,-684.23C822.62,-726.77 804.68,-837.78 859.5,-900 877.99,-920.98 941.8,-934.59 997.82,-942.76"/>
<polygon fill="black" stroke="black" points="1007.82,-944.18 997.29,-947.23 1002.87,-943.48 997.92,-942.78 997.92,-942.78 997.92,-942.78 1002.87,-943.48 998.55,-938.32 1007.82,-944.18 1007.82,-944.18"/>
</g>
<!-- inkex.elements._text&#45;&gt;inkex.elements._base -->
<g id="edge57" class="edge">
<title>inkex.elements._text&#45;&gt;inkex.elements._base</title>
<path fill="none" stroke="black" d="M1290.3,-755.68C1239.56,-765.97 1174.3,-779.21 1121.51,-789.93"/>
<polygon fill="black" stroke="black" points="1111.46,-791.96 1120.37,-785.56 1116.36,-790.97 1121.27,-789.98 1121.27,-789.98 1121.27,-789.98 1116.36,-790.97 1122.16,-794.39 1111.46,-791.96 1111.46,-791.96"/>
</g>
<!-- inkex.elements._text&#45;&gt;inkex.elements._polygons -->
<g id="edge58" class="edge">
<title>inkex.elements._text&#45;&gt;inkex.elements._polygons</title>
<path fill="none" stroke="black" d="M1346.75,-756.13C1334.02,-765.56 1319.14,-778.16 1308.5,-792 1294.06,-810.78 1283.2,-835.45 1276.3,-854.06"/>
<polygon fill="black" stroke="black" points="1272.87,-863.69 1271.98,-852.76 1274.55,-858.98 1276.22,-854.27 1276.22,-854.27 1276.22,-854.27 1274.55,-858.98 1280.46,-855.78 1272.87,-863.69 1272.87,-863.69"/>
</g>
<!-- inkex.elements._use&#45;&gt;inkex.elements._base -->
<g id="edge59" class="edge">
<title>inkex.elements._use&#45;&gt;inkex.elements._base</title>
<path fill="none" stroke="black" d="M1129.06,-684.12C1111.77,-693.01 1092.12,-705.15 1077.5,-720 1059.82,-737.96 1046.35,-763.43 1037.87,-782.53"/>
<polygon fill="black" stroke="black" points="1033.9,-791.86 1033.68,-780.89 1035.86,-787.26 1037.82,-782.66 1037.82,-782.66 1037.82,-782.66 1035.86,-787.26 1041.96,-784.42 1033.9,-791.86 1033.9,-791.86"/>
</g>
<!-- inkex.elements._use&#45;&gt;inkex.elements._groups -->
<g id="edge60" class="edge">
<title>inkex.elements._use&#45;&gt;inkex.elements._groups</title>
<path fill="none" stroke="black" d="M1171.22,-684.3C1172.43,-692.02 1173.89,-701.29 1175.24,-709.89"/>
<polygon fill="black" stroke="black" points="1176.81,-719.9 1170.81,-710.72 1176.04,-714.96 1175.26,-710.02 1175.26,-710.02 1175.26,-710.02 1176.04,-714.96 1179.71,-709.32 1176.81,-719.9 1176.81,-719.9"/>
</g>
<!-- inkex.extensions&#45;&gt;inkex.base -->
<g id="edge61" class="edge">
<title>inkex.extensions&#45;&gt;inkex.base</title>
<path fill="none" stroke="black" d="M2418.42,-180.24C2451.65,-211.96 2519.33,-283.34 2544.5,-360 2551.09,-380.06 2548.68,-403.98 2544.99,-421.97"/>
<polygon fill="black" stroke="black" points="2542.72,-431.8 2540.58,-421.05 2543.84,-426.93 2544.97,-422.06 2544.97,-422.06 2544.97,-422.06 2543.84,-426.93 2549.35,-423.07 2542.72,-431.8 2542.72,-431.8"/>
</g>
<!-- inkex.extensions&#45;&gt;inkex.colors -->
<g id="edge62" class="edge">
<title>inkex.extensions&#45;&gt;inkex.colors</title>
<path fill="none" stroke="black" d="M2331.22,-173.95C2315.57,-176.19 2298.99,-178.37 2283.5,-180 2001.08,-209.77 1662.06,-225.29 1525.23,-230.72"/>
<polygon fill="black" stroke="black" points="1514.95,-231.12 1524.77,-226.23 1519.95,-230.93 1524.95,-230.73 1524.95,-230.73 1524.95,-230.73 1519.95,-230.93 1525.12,-235.23 1514.95,-231.12 1514.95,-231.12"/>
</g>
<!-- inkex.extensions&#45;&gt;inkex.command -->
<g id="edge63" class="edge">
<title>inkex.extensions&#45;&gt;inkex.command</title>
<path fill="none" stroke="black" d="M2331.48,-173.32C2254.23,-185.13 2131.85,-204.15 2069.7,-215.86"/>
<polygon fill="black" stroke="black" points="2059.54,-217.82 2068.51,-211.51 2064.45,-216.87 2069.36,-215.93 2069.36,-215.93 2069.36,-215.93 2064.45,-216.87 2070.21,-220.35 2059.54,-217.82 2059.54,-217.82"/>
</g>
<!-- inkex.extensions&#45;&gt;inkex.elements -->
<g id="edge64" class="edge">
<title>inkex.extensions&#45;&gt;inkex.elements</title>
<path fill="none" stroke="black" d="M2360.01,-180.1C2338.9,-189.76 2312.75,-202.57 2290.5,-216 2267.36,-229.97 2266.99,-243.03 2241.5,-252 2065.46,-313.93 1577.83,-224.09 1402.5,-288 1289.84,-329.07 1194.83,-443.99 1156.57,-495.48"/>
<polygon fill="black" stroke="black" points="1150.5,-503.76 1152.79,-493.03 1153.46,-499.72 1156.42,-495.69 1156.42,-495.69 1156.42,-495.69 1153.46,-499.72 1160.05,-498.35 1150.5,-503.76 1150.5,-503.76"/>
</g>
<!-- inkex.extensions&#45;&gt;inkex.elements._utils -->
<g id="edge65" class="edge">
<title>inkex.extensions&#45;&gt;inkex.elements._utils</title>
<path fill="none" stroke="black" d="M2429.9,-180.04C2494.48,-218.74 2639.5,-320.01 2639.5,-449 2639.5,-449 2639.5,-449 2639.5,-811 2639.5,-922.27 2514.51,-877.69 2405.5,-900 2172.08,-947.77 1445.88,-952.88 1185.55,-953.13"/>
<polygon fill="black" stroke="black" points="1175.37,-953.14 1185.36,-948.63 1180.37,-953.14 1185.37,-953.13 1185.37,-953.13 1185.37,-953.13 1180.37,-953.14 1185.37,-957.63 1175.37,-953.14 1175.37,-953.14"/>
</g>
<!-- inkex.extensions&#45;&gt;inkex.localization -->
<g id="edge66" class="edge">
<title>inkex.extensions&#45;&gt;inkex.localization</title>
<path fill="none" stroke="black" d="M2397.13,-180.01C2393.63,-206.62 2387.5,-259.72 2387.5,-305 2387.5,-305 2387.5,-305 2387.5,-379 2387.5,-419.01 2388.3,-465.35 2388.89,-493.92"/>
<polygon fill="black" stroke="black" points="2389.1,-503.95 2384.39,-494.05 2389,-498.95 2388.89,-493.95 2388.89,-493.95 2388.89,-493.95 2389,-498.95 2393.39,-493.86 2389.1,-503.95 2389.1,-503.95"/>
</g>
<!-- inkex.extensions&#45;&gt;inkex.transforms -->
<g id="edge67" class="edge">
<title>inkex.extensions&#45;&gt;inkex.transforms</title>
<path fill="none" stroke="black" d="M2378.7,-180.13C2366.16,-190.48 2349.88,-203.96 2335.5,-216 2244.62,-292.13 2137.64,-383.19 2088.16,-425.38"/>
<polygon fill="black" stroke="black" points="2080.45,-431.97 2085.14,-422.05 2084.25,-428.72 2088.06,-425.48 2088.06,-425.48 2088.06,-425.48 2084.25,-428.72 2090.98,-428.9 2080.45,-431.97 2080.45,-431.97"/>
</g>
<!-- inkex.extensions&#45;&gt;inkex.utils -->
<g id="edge68" class="edge">
<title>inkex.extensions&#45;&gt;inkex.utils</title>
<path fill="none" stroke="black" d="M2389.14,-180.24C2374.49,-206.3 2349.5,-257.69 2349.5,-305 2349.5,-305 2349.5,-305 2349.5,-379 2349.5,-426.83 2311.96,-470.92 2284.32,-496.89"/>
<polygon fill="black" stroke="black" points="2276.83,-503.73 2281.19,-493.66 2280.52,-500.36 2284.22,-496.99 2284.22,-496.99 2284.22,-496.99 2280.52,-500.36 2287.25,-500.31 2276.83,-503.73 2276.83,-503.73"/>
</g>
<!-- inkex.gui -->
<g id="node27" class="node">
<title>inkex.gui</title>
<polygon fill="none" stroke="black" points="2817.5,-468 2735.5,-468 2735.5,-432 2817.5,-432 2817.5,-468"/>
<text text-anchor="middle" x="2776.5" y="-446.3" font-family="Times,serif" font-size="14.00">inkex.gui</text>
</g>
<!-- inkex.gui.app -->
<g id="node28" class="node">
<title>inkex.gui.app</title>
<polygon fill="none" stroke="black" points="2978,-540 2865,-540 2865,-504 2978,-504 2978,-540"/>
<text text-anchor="middle" x="2921.5" y="-518.3" font-family="Times,serif" font-size="14.00">inkex.gui.app</text>
</g>
<!-- inkex.gui&#45;&gt;inkex.gui.app -->
<g id="edge69" class="edge">
<title>inkex.gui&#45;&gt;inkex.gui.app</title>
<path fill="none" stroke="black" d="M2811.97,-468.12C2831.62,-477.61 2856.22,-489.49 2877.13,-499.58"/>
<polygon fill="black" stroke="black" points="2886.14,-503.93 2875.18,-503.64 2881.64,-501.76 2877.14,-499.58 2877.14,-499.58 2877.14,-499.58 2881.64,-501.76 2879.1,-495.53 2886.14,-503.93 2886.14,-503.93"/>
</g>
<!-- inkex.gui.listview -->
<g id="node30" class="node">
<title>inkex.gui.listview</title>
<polygon fill="none" stroke="black" points="3138.5,-540 2996.5,-540 2996.5,-504 3138.5,-504 3138.5,-540"/>
<text text-anchor="middle" x="3067.5" y="-518.3" font-family="Times,serif" font-size="14.00">inkex.gui.listview</text>
</g>
<!-- inkex.gui&#45;&gt;inkex.gui.listview -->
<g id="edge70" class="edge">
<title>inkex.gui&#45;&gt;inkex.gui.listview</title>
<path fill="none" stroke="black" d="M2817.58,-460.88C2861.4,-471.42 2931.93,-488.39 2986.91,-501.61"/>
<polygon fill="black" stroke="black" points="2996.63,-503.95 2985.86,-505.99 2991.77,-502.78 2986.91,-501.61 2986.91,-501.61 2986.91,-501.61 2991.77,-502.78 2987.96,-497.24 2996.63,-503.95 2996.63,-503.95"/>
</g>
<!-- inkex.gui.pixmap -->
<g id="node31" class="node">
<title>inkex.gui.pixmap</title>
<polygon fill="none" stroke="black" points="2972,-612 2833,-612 2833,-576 2972,-576 2972,-612"/>
<text text-anchor="middle" x="2902.5" y="-590.3" font-family="Times,serif" font-size="14.00">inkex.gui.pixmap</text>
</g>
<!-- inkex.gui&#45;&gt;inkex.gui.pixmap -->
<g id="edge71" class="edge">
<title>inkex.gui&#45;&gt;inkex.gui.pixmap</title>
<path fill="none" stroke="black" d="M2735.82,-468.12C2720.98,-476.59 2705.82,-488.41 2697.5,-504 2689.97,-518.12 2687.7,-527.35 2697.5,-540 2713.14,-560.2 2772.22,-574.09 2822.97,-582.56"/>
<polygon fill="black" stroke="black" points="2832.99,-584.19 2822.4,-587.03 2828.05,-583.39 2823.12,-582.59 2823.12,-582.59 2823.12,-582.59 2828.05,-583.39 2823.84,-578.15 2832.99,-584.19 2832.99,-584.19"/>
</g>
<!-- inkex.gui.window -->
<g id="node33" class="node">
<title>inkex.gui.window</title>
<polygon fill="none" stroke="black" points="2847,-540 2706,-540 2706,-504 2847,-504 2847,-540"/>
<text text-anchor="middle" x="2776.5" y="-518.3" font-family="Times,serif" font-size="14.00">inkex.gui.window</text>
</g>
<!-- inkex.gui&#45;&gt;inkex.gui.window -->
<g id="edge72" class="edge">
<title>inkex.gui&#45;&gt;inkex.gui.window</title>
<path fill="none" stroke="black" d="M2776.5,-468.3C2776.5,-476.02 2776.5,-485.29 2776.5,-493.89"/>
<polygon fill="black" stroke="black" points="2776.5,-503.9 2772,-493.9 2776.5,-498.9 2776.5,-493.9 2776.5,-493.9 2776.5,-493.9 2776.5,-498.9 2781,-493.9 2776.5,-503.9 2776.5,-503.9"/>
</g>
<!-- inkex.gui&#45;&gt;inkex.utils -->
<g id="edge73" class="edge">
<title>inkex.gui&#45;&gt;inkex.utils</title>
<path fill="none" stroke="black" d="M2735.25,-454.7C2640.47,-463.34 2408.48,-485.43 2311.32,-504.13"/>
<polygon fill="black" stroke="black" points="2301.25,-506.16 2310.16,-499.77 2306.15,-505.17 2311.05,-504.18 2311.05,-504.18 2311.05,-504.18 2306.15,-505.17 2311.94,-508.59 2301.25,-506.16 2301.25,-506.16"/>
</g>
<!-- inkex.gui.asyncme -->
<g id="node29" class="node">
<title>inkex.gui.asyncme</title>
<polygon fill="none" stroke="black" points="1980,-36 1831,-36 1831,0 1980,0 1980,-36"/>
<text text-anchor="middle" x="1905.5" y="-14.3" font-family="Times,serif" font-size="14.00">inkex.gui.asyncme</text>
</g>
<!-- inkex.gui.listview&#45;&gt;inkex.gui.pixmap -->
<g id="edge74" class="edge">
<title>inkex.gui.listview&#45;&gt;inkex.gui.pixmap</title>
<path fill="none" stroke="black" d="M3027.14,-540.12C3004.48,-549.74 2976.03,-561.81 2952.03,-571.99"/>
<polygon fill="black" stroke="black" points="2942.73,-575.93 2950.18,-567.88 2947.34,-573.98 2951.94,-572.03 2951.94,-572.03 2951.94,-572.03 2947.34,-573.98 2953.7,-576.17 2942.73,-575.93 2942.73,-575.93"/>
</g>
<!-- inkex.gui.tester -->
<g id="node32" class="node">
<title>inkex.gui.tester</title>
<polygon fill="none" stroke="black" points="2376,-36 2247,-36 2247,0 2376,0 2376,-36"/>
<text text-anchor="middle" x="2311.5" y="-14.3" font-family="Times,serif" font-size="14.00">inkex.gui.tester</text>
</g>
<!-- inkex.interfaces -->
<g id="node34" class="node">
<title>inkex.interfaces</title>
<polygon fill="none" stroke="black" points="1859,-468 1728,-468 1728,-432 1859,-432 1859,-468"/>
<text text-anchor="middle" x="1793.5" y="-446.3" font-family="Times,serif" font-size="14.00">inkex.interfaces</text>
</g>
<!-- inkex.inx -->
<g id="node36" class="node">
<title>inkex.inx</title>
<polygon fill="none" stroke="black" points="2535,-396 2454,-396 2454,-360 2535,-360 2535,-396"/>
<text text-anchor="middle" x="2494.5" y="-374.3" font-family="Times,serif" font-size="14.00">inkex.inx</text>
</g>
<!-- inkex.inx&#45;&gt;inkex.base -->
<g id="edge75" class="edge">
<title>inkex.inx&#45;&gt;inkex.base</title>
<path fill="none" stroke="black" d="M2505.13,-396.3C2510.13,-404.44 2516.19,-414.31 2521.71,-423.3"/>
<polygon fill="black" stroke="black" points="2526.99,-431.9 2517.92,-425.73 2524.38,-427.64 2521.76,-423.37 2521.76,-423.37 2521.76,-423.37 2524.38,-427.64 2525.59,-421.02 2526.99,-431.9 2526.99,-431.9"/>
</g>
<!-- inkex.inx&#45;&gt;inkex.utils -->
<g id="edge76" class="edge">
<title>inkex.inx&#45;&gt;inkex.utils</title>
<path fill="none" stroke="black" d="M2488.41,-396.1C2480.34,-416.29 2464.18,-449.44 2439.5,-468 2394.34,-501.96 2370.14,-488.76 2310.9,-504.09"/>
<polygon fill="black" stroke="black" points="2301.09,-506.8 2309.53,-499.8 2305.91,-505.47 2310.73,-504.14 2310.73,-504.14 2310.73,-504.14 2305.91,-505.47 2311.93,-508.47 2301.09,-506.8 2301.09,-506.8"/>
</g>
<!-- inkex.paths&#45;&gt;inkex.interfaces -->
<g id="edge77" class="edge">
<title>inkex.paths&#45;&gt;inkex.interfaces</title>
<path fill="none" stroke="black" d="M1653.76,-396.12C1679.5,-405.86 1711.91,-418.13 1739.04,-428.39"/>
<polygon fill="black" stroke="black" points="1748.39,-431.93 1737.45,-432.6 1743.71,-430.16 1739.04,-428.39 1739.04,-428.39 1739.04,-428.39 1743.71,-430.16 1740.63,-424.18 1748.39,-431.93 1748.39,-431.93"/>
</g>
<!-- inkex.paths.arc -->
<g id="node39" class="node">
<title>inkex.paths.arc</title>
<polygon fill="none" stroke="black" points="1671.5,-468 1545.5,-468 1545.5,-432 1671.5,-432 1671.5,-468"/>
<text text-anchor="middle" x="1608.5" y="-446.3" font-family="Times,serif" font-size="14.00">inkex.paths.arc</text>
</g>
<!-- inkex.paths&#45;&gt;inkex.paths.arc -->
<g id="edge78" class="edge">
<title>inkex.paths&#45;&gt;inkex.paths.arc</title>
<path fill="none" stroke="black" d="M1608.5,-396.3C1608.5,-404.02 1608.5,-413.29 1608.5,-421.89"/>
<polygon fill="black" stroke="black" points="1608.5,-431.9 1604,-421.9 1608.5,-426.9 1608.5,-421.9 1608.5,-421.9 1608.5,-421.9 1608.5,-426.9 1613,-421.9 1608.5,-431.9 1608.5,-431.9"/>
</g>
<!-- inkex.paths.curves -->
<g id="node40" class="node">
<title>inkex.paths.curves</title>
<polygon fill="none" stroke="black" points="1745,-612 1594,-612 1594,-576 1745,-576 1745,-612"/>
<text text-anchor="middle" x="1669.5" y="-590.3" font-family="Times,serif" font-size="14.00">inkex.paths.curves</text>
</g>
<!-- inkex.paths&#45;&gt;inkex.paths.curves -->
<g id="edge79" class="edge">
<title>inkex.paths&#45;&gt;inkex.paths.curves</title>
<path fill="none" stroke="black" d="M1572.47,-396.19C1558.58,-404.84 1544.2,-416.76 1536.5,-432 1529.28,-446.28 1530.08,-453.34 1536.5,-468 1545.96,-489.61 1558.27,-487.89 1575.5,-504 1598.77,-525.76 1625.09,-550.71 1643.95,-568.64"/>
<polygon fill="black" stroke="black" points="1651.54,-575.87 1641.2,-572.24 1647.92,-572.42 1644.3,-568.98 1644.3,-568.98 1644.3,-568.98 1647.92,-572.42 1647.4,-565.72 1651.54,-575.87 1651.54,-575.87"/>
</g>
<!-- inkex.paths.lines -->
<g id="node42" class="node">
<title>inkex.paths.lines</title>
<polygon fill="none" stroke="black" points="1848,-756 1711,-756 1711,-720 1848,-720 1848,-756"/>
<text text-anchor="middle" x="1779.5" y="-734.3" font-family="Times,serif" font-size="14.00">inkex.paths.lines</text>
</g>
<!-- inkex.paths&#45;&gt;inkex.paths.lines -->
<g id="edge80" class="edge">
<title>inkex.paths&#45;&gt;inkex.paths.lines</title>
<path fill="none" stroke="black" d="M1566.39,-396.13C1551.32,-404.55 1535.97,-416.33 1527.5,-432 1519.89,-446.07 1524.5,-452.28 1527.5,-468 1527.7,-469.06 1583.88,-611.12 1584.5,-612 1619.19,-661.26 1680.08,-695.68 1724.61,-715.76"/>
<polygon fill="black" stroke="black" points="1733.85,-719.82 1722.89,-719.91 1729.27,-717.81 1724.7,-715.79 1724.7,-715.79 1724.7,-715.79 1729.27,-717.81 1726.51,-711.68 1733.85,-719.82 1733.85,-719.82"/>
</g>
<!-- inkex.paths.path -->
<g id="node43" class="node">
<title>inkex.paths.path</title>
<polygon fill="none" stroke="black" points="1897.5,-540 1761.5,-540 1761.5,-504 1897.5,-504 1897.5,-540"/>
<text text-anchor="middle" x="1829.5" y="-518.3" font-family="Times,serif" font-size="14.00">inkex.paths.path</text>
</g>
<!-- inkex.paths&#45;&gt;inkex.paths.path -->
<g id="edge81" class="edge">
<title>inkex.paths&#45;&gt;inkex.paths.path</title>
<path fill="none" stroke="black" d="M1658.22,-381.91C1725.9,-387.02 1841.6,-400.26 1867.5,-432 1882.93,-450.91 1868.62,-477.01 1853.35,-496.06"/>
<polygon fill="black" stroke="black" points="1846.83,-503.75 1849.86,-493.21 1850.06,-499.93 1853.29,-496.12 1853.29,-496.12 1853.29,-496.12 1850.06,-499.93 1856.73,-499.03 1846.83,-503.75 1846.83,-503.75"/>
</g>
<!-- inkex.paths.quadratic -->
<g id="node44" class="node">
<title>inkex.paths.quadratic</title>
<polygon fill="none" stroke="black" points="2011.5,-612 1839.5,-612 1839.5,-576 2011.5,-576 2011.5,-612"/>
<text text-anchor="middle" x="1925.5" y="-590.3" font-family="Times,serif" font-size="14.00">inkex.paths.quadratic</text>
</g>
<!-- inkex.paths&#45;&gt;inkex.paths.quadratic -->
<g id="edge82" class="edge">
<title>inkex.paths&#45;&gt;inkex.paths.quadratic</title>
<path fill="none" stroke="black" d="M1658.04,-382.35C1728.51,-388.11 1852.81,-402.27 1885.5,-432 1922.96,-466.07 1927.83,-529.28 1927.21,-565.53"/>
<polygon fill="black" stroke="black" points="1926.87,-575.86 1922.7,-565.72 1927.04,-570.86 1927.2,-565.86 1927.2,-565.86 1927.2,-565.86 1927.04,-570.86 1931.7,-566.01 1926.87,-575.86 1926.87,-575.86"/>
</g>
<!-- inkex.paths&#45;&gt;inkex.transforms -->
<g id="edge83" class="edge">
<title>inkex.paths&#45;&gt;inkex.transforms</title>
<path fill="none" stroke="black" d="M1658.16,-386.69C1736.16,-398.77 1888.07,-422.3 1981.28,-436.73"/>
<polygon fill="black" stroke="black" points="1991.23,-438.27 1980.66,-441.19 1986.29,-437.51 1981.34,-436.74 1981.34,-436.74 1981.34,-436.74 1986.29,-437.51 1982.03,-432.29 1991.23,-438.27 1991.23,-438.27"/>
</g>
<!-- inkex.paths.arc&#45;&gt;inkex.paths.curves -->
<g id="edge133" class="edge">
<title>inkex.paths.arc&#45;&gt;inkex.paths.curves</title>
<path fill="none" stroke="black" stroke-dasharray="5,2" d="M1615.86,-468.13C1626.35,-492.54 1645.69,-537.57 1658.06,-566.36"/>
<polygon fill="black" stroke="black" points="1662.12,-575.81 1654.03,-568.4 1660.14,-571.22 1658.17,-566.62 1658.17,-566.62 1658.17,-566.62 1660.14,-571.22 1662.3,-564.85 1662.12,-575.81 1662.12,-575.81"/>
</g>
<!-- inkex.paths.interfaces -->
<g id="node41" class="node">
<title>inkex.paths.interfaces</title>
<polygon fill="none" stroke="black" points="1867,-684 1692,-684 1692,-648 1867,-648 1867,-684"/>
<text text-anchor="middle" x="1779.5" y="-662.3" font-family="Times,serif" font-size="14.00">inkex.paths.interfaces</text>
</g>
<!-- inkex.paths.arc&#45;&gt;inkex.paths.interfaces -->
<g id="edge84" class="edge">
<title>inkex.paths.arc&#45;&gt;inkex.paths.interfaces</title>
<path fill="none" stroke="black" d="M1636.83,-468.13C1669.65,-489.42 1723.1,-528.76 1753.5,-576 1765.57,-594.76 1772.19,-619.29 1775.73,-637.84"/>
<polygon fill="black" stroke="black" points="1777.43,-647.72 1771.3,-638.63 1776.58,-642.8 1775.73,-637.87 1775.73,-637.87 1775.73,-637.87 1776.58,-642.8 1780.17,-637.11 1777.43,-647.72 1777.43,-647.72"/>
</g>
<!-- inkex.paths.arc&#45;&gt;inkex.paths.path -->
<g id="edge85" class="edge">
<title>inkex.paths.arc&#45;&gt;inkex.paths.path</title>
<path fill="none" stroke="black" d="M1662.28,-468.03C1693.43,-477.9 1732.82,-490.38 1765.55,-500.75"/>
<polygon fill="black" stroke="black" points="1775.48,-503.89 1764.59,-505.16 1770.71,-502.38 1765.95,-500.87 1765.95,-500.87 1765.95,-500.87 1770.71,-502.38 1767.3,-496.58 1775.48,-503.89 1775.48,-503.89"/>
</g>
<!-- inkex.paths.curves&#45;&gt;inkex.paths.interfaces -->
<g id="edge86" class="edge">
<title>inkex.paths.curves&#45;&gt;inkex.paths.interfaces</title>
<path fill="none" stroke="black" d="M1690.51,-612.12C1703.94,-621.28 1721.67,-632.66 1737.82,-642.52"/>
<polygon fill="black" stroke="black" points="1746.58,-647.81 1735.7,-646.49 1742.3,-645.23 1738.02,-642.64 1738.02,-642.64 1738.02,-642.64 1742.3,-645.23 1740.35,-638.79 1746.58,-647.81 1746.58,-647.81"/>
</g>
<!-- inkex.paths.interfaces&#45;&gt;inkex.paths.curves -->
<g id="edge134" class="edge">
<title>inkex.paths.interfaces&#45;&gt;inkex.paths.curves</title>
<path fill="none" stroke="black" stroke-dasharray="5,2" d="M1758.39,-647.81C1744.95,-638.65 1727.2,-627.26 1711.07,-617.41"/>
<polygon fill="black" stroke="black" points="1702.31,-612.12 1713.19,-613.44 1706.59,-614.71 1710.87,-617.29 1710.87,-617.29 1710.87,-617.29 1706.59,-614.71 1708.54,-621.14 1702.31,-612.12 1702.31,-612.12"/>
</g>
<!-- inkex.paths.interfaces&#45;&gt;inkex.paths.lines -->
<g id="edge135" class="edge">
<title>inkex.paths.interfaces&#45;&gt;inkex.paths.lines</title>
<path fill="none" stroke="black" stroke-dasharray="5,2" d="M1767.67,-684.3C1766.08,-692.02 1765.62,-701.29 1766.31,-709.89"/>
<polygon fill="black" stroke="black" points="1767.71,-719.9 1761.87,-710.62 1767.02,-714.94 1766.32,-709.99 1766.32,-709.99 1766.32,-709.99 1767.02,-714.94 1770.78,-709.37 1767.71,-719.9 1767.71,-719.9"/>
</g>
<!-- inkex.paths.lines&#45;&gt;inkex.paths.curves -->
<g id="edge136" class="edge">
<title>inkex.paths.lines&#45;&gt;inkex.paths.curves</title>
<path fill="none" stroke="black" stroke-dasharray="5,2" d="M1728.56,-719.98C1711.35,-711.74 1693.68,-700.07 1682.5,-684 1669.99,-666.02 1667.29,-641.03 1667.4,-622.1"/>
<polygon fill="black" stroke="black" points="1667.72,-612.03 1671.9,-622.17 1667.56,-617.03 1667.4,-622.02 1667.4,-622.02 1667.4,-622.02 1667.56,-617.03 1662.9,-621.88 1667.72,-612.03 1667.72,-612.03"/>
</g>
<!-- inkex.paths.lines&#45;&gt;inkex.paths.interfaces -->
<g id="edge87" class="edge">
<title>inkex.paths.lines&#45;&gt;inkex.paths.interfaces</title>
<path fill="none" stroke="black" d="M1779.5,-719.9C1779.5,-712.21 1779.5,-702.95 1779.5,-694.33"/>
<polygon fill="black" stroke="black" points="1779.5,-684.3 1784,-694.3 1779.5,-689.3 1779.5,-694.3 1779.5,-694.3 1779.5,-694.3 1779.5,-689.3 1775,-694.3 1779.5,-684.3 1779.5,-684.3"/>
</g>
<!-- inkex.paths.lines&#45;&gt;inkex.paths.interfaces -->
<g id="edge88" class="edge">
<title>inkex.paths.lines&#45;&gt;inkex.paths.interfaces</title>
<path fill="none" stroke="black" d="M1791.29,-719.9C1792.9,-712.21 1793.37,-702.95 1792.71,-694.33"/>
<polygon fill="black" stroke="black" points="1791.33,-684.3 1797.15,-693.6 1792.01,-689.26 1792.69,-694.21 1792.69,-694.21 1792.69,-694.21 1792.01,-689.26 1788.23,-694.82 1791.33,-684.3 1791.33,-684.3"/>
</g>
<!-- inkex.paths.path&#45;&gt;inkex.paths.curves -->
<g id="edge89" class="edge">
<title>inkex.paths.path&#45;&gt;inkex.paths.curves</title>
<path fill="none" stroke="black" d="M1790.36,-540.12C1768.49,-549.69 1741.04,-561.7 1717.84,-571.85"/>
<polygon fill="black" stroke="black" points="1708.51,-575.93 1715.87,-567.8 1713.09,-573.93 1717.67,-571.92 1717.67,-571.92 1717.67,-571.92 1713.09,-573.93 1719.48,-576.05 1708.51,-575.93 1708.51,-575.93"/>
</g>
<!-- inkex.paths.path&#45;&gt;inkex.paths.interfaces -->
<g id="edge90" class="edge">
<title>inkex.paths.path&#45;&gt;inkex.paths.interfaces</title>
<path fill="none" stroke="black" d="M1823.47,-540.13C1814.87,-564.54 1799.02,-609.57 1788.88,-638.36"/>
<polygon fill="black" stroke="black" points="1785.55,-647.81 1784.63,-636.88 1787.21,-643.09 1788.87,-638.38 1788.87,-638.38 1788.87,-638.38 1787.21,-643.09 1793.12,-639.87 1785.55,-647.81 1785.55,-647.81"/>
</g>
<!-- inkex.paths.path&#45;&gt;inkex.paths.lines -->
<g id="edge91" class="edge">
<title>inkex.paths.path&#45;&gt;inkex.paths.lines</title>
<path fill="none" stroke="black" d="M1897.54,-529.32C1964.25,-538.56 2051.71,-560.65 2020.5,-612 1985.4,-669.75 1914.01,-702.03 1857.99,-719.24"/>
<polygon fill="black" stroke="black" points="1848.08,-722.18 1856.39,-715.02 1852.88,-720.76 1857.67,-719.34 1857.67,-719.34 1857.67,-719.34 1852.88,-720.76 1858.95,-723.65 1848.08,-722.18 1848.08,-722.18"/>
</g>
<!-- inkex.paths.quadratic&#45;&gt;inkex.paths.interfaces -->
<g id="edge92" class="edge">
<title>inkex.paths.quadratic&#45;&gt;inkex.paths.interfaces</title>
<path fill="none" stroke="black" d="M1889.78,-612.12C1870,-621.61 1845.23,-633.49 1824.17,-643.58"/>
<polygon fill="black" stroke="black" points="1815.1,-647.93 1822.17,-639.55 1819.61,-645.77 1824.12,-643.61 1824.12,-643.61 1824.12,-643.61 1819.61,-645.77 1826.06,-647.67 1815.1,-647.93 1815.1,-647.93"/>
</g>
<!-- inkex.ports -->
<g id="node45" class="node">
<title>inkex.ports</title>
<polygon fill="none" stroke="black" points="2245,-468 2148,-468 2148,-432 2245,-432 2245,-468"/>
<text text-anchor="middle" x="2196.5" y="-446.3" font-family="Times,serif" font-size="14.00">inkex.ports</text>
</g>
<!-- inkex.ports&#45;&gt;inkex.utils -->
<g id="edge93" class="edge">
<title>inkex.ports&#45;&gt;inkex.utils</title>
<path fill="none" stroke="black" d="M2211.08,-468.3C2218.16,-476.7 2226.78,-486.93 2234.55,-496.14"/>
<polygon fill="black" stroke="black" points="2241.08,-503.9 2231.2,-499.15 2237.86,-500.07 2234.64,-496.25 2234.64,-496.25 2234.64,-496.25 2237.86,-500.07 2238.08,-493.35 2241.08,-503.9 2241.08,-503.9"/>
</g>
<!-- inkex.properties -->
<g id="node46" class="node">
<title>inkex.properties</title>
<polygon fill="none" stroke="black" points="1413.5,-468 1279.5,-468 1279.5,-432 1413.5,-432 1413.5,-468"/>
<text text-anchor="middle" x="1346.5" y="-446.3" font-family="Times,serif" font-size="14.00">inkex.properties</text>
</g>
<!-- inkex.properties&#45;&gt;inkex.colors -->
<g id="edge94" class="edge">
<title>inkex.properties&#45;&gt;inkex.colors</title>
<path fill="none" stroke="black" d="M1349.46,-431.7C1355.4,-400.69 1370.98,-334.56 1402.5,-288 1409.95,-277 1420.23,-266.89 1430.23,-258.51"/>
<polygon fill="black" stroke="black" points="1438.13,-252.18 1433.14,-261.94 1434.23,-255.3 1430.33,-258.43 1430.33,-258.43 1430.33,-258.43 1434.23,-255.3 1427.52,-254.92 1438.13,-252.18 1438.13,-252.18"/>
</g>
<!-- inkex.properties&#45;&gt;inkex.elements -->
<g id="edge137" class="edge">
<title>inkex.properties&#45;&gt;inkex.elements</title>
<path fill="none" stroke="black" stroke-dasharray="5,2" d="M1295.88,-468.03C1266.69,-477.86 1229.81,-490.27 1199.08,-500.61"/>
<polygon fill="black" stroke="black" points="1189.34,-503.89 1197.39,-496.43 1194.08,-502.29 1198.82,-500.7 1198.82,-500.7 1198.82,-500.7 1194.08,-502.29 1200.26,-504.96 1189.34,-503.89 1189.34,-503.89"/>
</g>
<!-- inkex.properties&#45;&gt;inkex.interfaces.IElement -->
<g id="edge95" class="edge">
<title>inkex.properties&#45;&gt;inkex.interfaces.IElement</title>
<path fill="none" stroke="black" d="M1339.83,-468.3C1336.79,-476.19 1333.12,-485.7 1329.74,-494.45"/>
<polygon fill="black" stroke="black" points="1326.1,-503.9 1325.5,-492.95 1327.9,-499.23 1329.7,-494.57 1329.7,-494.57 1329.7,-494.57 1327.9,-499.23 1333.89,-496.19 1326.1,-503.9 1326.1,-503.9"/>
</g>
<!-- inkex.units -->
<g id="node60" class="node">
<title>inkex.units</title>
<polygon fill="none" stroke="black" points="1533,-540 1438,-540 1438,-504 1533,-504 1533,-540"/>
<text text-anchor="middle" x="1485.5" y="-518.3" font-family="Times,serif" font-size="14.00">inkex.units</text>
</g>
<!-- inkex.properties&#45;&gt;inkex.units -->
<g id="edge96" class="edge">
<title>inkex.properties&#45;&gt;inkex.units</title>
<path fill="none" stroke="black" d="M1380.5,-468.12C1399.1,-477.49 1422.33,-489.19 1442.21,-499.2"/>
<polygon fill="black" stroke="black" points="1451.37,-503.81 1440.41,-503.33 1446.9,-501.56 1442.43,-499.31 1442.43,-499.31 1442.43,-499.31 1446.9,-501.56 1444.46,-495.29 1451.37,-503.81 1451.37,-503.81"/>
</g>
<!-- inkex.properties&#45;&gt;inkex.utils -->
<g id="edge97" class="edge">
<title>inkex.properties&#45;&gt;inkex.utils</title>
<path fill="none" stroke="black" d="M1413.75,-457.28C1450.08,-460.6 1495.73,-464.67 1536.5,-468 1783.48,-488.15 2078.47,-508.83 2199.5,-517.17"/>
<polygon fill="black" stroke="black" points="2209.64,-517.87 2199.35,-521.67 2204.65,-517.53 2199.66,-517.18 2199.66,-517.18 2199.66,-517.18 2204.65,-517.53 2199.97,-512.69 2209.64,-517.87 2209.64,-517.87"/>
</g>
<!-- inkex.styles&#45;&gt;inkex.colors -->
<g id="edge98" class="edge">
<title>inkex.styles&#45;&gt;inkex.colors</title>
<path fill="none" stroke="black" d="M977.4,-359.67C977.15,-339.25 980.18,-305.87 1000.5,-288 1030.13,-261.95 1283.42,-244.83 1402.33,-238.15"/>
<polygon fill="black" stroke="black" points="1412.37,-237.59 1402.64,-242.64 1407.38,-237.87 1402.39,-238.15 1402.39,-238.15 1402.39,-238.15 1407.38,-237.87 1402.14,-233.65 1412.37,-237.59 1412.37,-237.59"/>
</g>
<!-- inkex.styles&#45;&gt;inkex.css -->
<g id="edge99" class="edge">
<title>inkex.styles&#45;&gt;inkex.css</title>
<path fill="none" stroke="black" d="M927.71,-393C883.43,-405.2 819.53,-422.81 775.26,-435.01"/>
<polygon fill="black" stroke="black" points="765.57,-437.68 774.01,-430.69 770.39,-436.35 775.21,-435.02 775.21,-435.02 775.21,-435.02 770.39,-436.35 776.4,-439.36 765.57,-437.68 765.57,-437.68"/>
</g>
<!-- inkex.styles&#45;&gt;inkex.css.parser -->
<g id="edge100" class="edge">
<title>inkex.styles&#45;&gt;inkex.css.parser</title>
<path fill="none" stroke="black" d="M927.95,-382.22C852.08,-387.97 713.49,-402.29 674.5,-432 633.03,-463.6 624.07,-528.76 622.47,-565.77"/>
<polygon fill="black" stroke="black" points="622.19,-575.85 617.97,-565.72 622.33,-570.85 622.47,-565.85 622.47,-565.85 622.47,-565.85 622.33,-570.85 626.97,-565.98 622.19,-575.85 622.19,-575.85"/>
</g>
<!-- inkex.styles&#45;&gt;inkex.elements -->
<g id="edge101" class="edge">
<title>inkex.styles&#45;&gt;inkex.elements</title>
<path fill="none" stroke="black" d="M997.8,-396.13C1026.15,-421.29 1079.17,-468.35 1111.41,-496.96"/>
<polygon fill="black" stroke="black" points="1119.13,-503.81 1108.67,-500.54 1115.39,-500.49 1111.65,-497.17 1111.65,-497.17 1111.65,-497.17 1115.39,-500.49 1114.64,-493.81 1119.13,-503.81 1119.13,-503.81"/>
</g>
<!-- inkex.styles&#45;&gt;inkex.elements._base -->
<g id="edge138" class="edge">
<title>inkex.styles&#45;&gt;inkex.elements._base</title>
<path fill="none" stroke="black" stroke-dasharray="5,2" d="M962.01,-396.15C926.76,-434.97 850.06,-532.43 885.5,-612 895.23,-633.85 910.07,-629.73 925.5,-648 945.07,-671.17 988.91,-743.7 1012.23,-783.03"/>
<polygon fill="black" stroke="black" points="1017.42,-791.81 1008.46,-785.49 1014.87,-787.5 1012.33,-783.2 1012.33,-783.2 1012.33,-783.2 1014.87,-787.5 1016.2,-780.91 1017.42,-791.81 1017.42,-791.81"/>
</g>
<!-- inkex.styles&#45;&gt;inkex.elements._utils -->
<g id="edge102" class="edge">
<title>inkex.styles&#45;&gt;inkex.elements._utils</title>
<path fill="none" stroke="black" d="M927.95,-379.24C860.25,-381.26 737.65,-390.92 642.5,-432 583.16,-457.62 527.5,-456.37 527.5,-521 527.5,-521 527.5,-521 527.5,-811 527.5,-906.78 837.23,-938.58 997.63,-948.63"/>
<polygon fill="black" stroke="black" points="1007.98,-949.26 997.72,-953.15 1002.99,-948.96 997.99,-948.66 997.99,-948.66 997.99,-948.66 1002.99,-948.96 998.27,-944.16 1007.98,-949.26 1007.98,-949.26"/>
</g>
<!-- inkex.styles&#45;&gt;inkex.interfaces.IElement -->
<g id="edge103" class="edge">
<title>inkex.styles&#45;&gt;inkex.interfaces.IElement</title>
<path fill="none" stroke="black" d="M1019.63,-396.13C1082.19,-422.18 1201.1,-471.7 1268.87,-499.92"/>
<polygon fill="black" stroke="black" points="1278.49,-503.92 1267.53,-504.23 1273.87,-502 1269.26,-500.08 1269.26,-500.08 1269.26,-500.08 1273.87,-502 1270.99,-495.92 1278.49,-503.92 1278.49,-503.92"/>
</g>
<!-- inkex.styles&#45;&gt;inkex.properties -->
<g id="edge104" class="edge">
<title>inkex.styles&#45;&gt;inkex.properties</title>
<path fill="none" stroke="black" d="M1029.12,-387.96C1086.51,-398.22 1182.86,-415.7 1265.5,-432 1266.77,-432.25 1268.05,-432.5 1269.34,-432.76"/>
<polygon fill="black" stroke="black" points="1279.34,-434.77 1268.65,-437.21 1274.44,-433.79 1269.54,-432.8 1269.54,-432.8 1269.54,-432.8 1274.44,-433.79 1270.43,-428.39 1279.34,-434.77 1279.34,-434.77"/>
</g>
<!-- inkex.styles&#45;&gt;inkex.tween -->
<g id="edge105" class="edge">
<title>inkex.styles&#45;&gt;inkex.tween</title>
<path fill="none" stroke="black" d="M1029.12,-365.22C1036.96,-363.3 1044.94,-361.46 1052.5,-360 1175.51,-336.26 1320.92,-320.64 1401.7,-312.85"/>
<polygon fill="black" stroke="black" points="1411.71,-311.89 1402.18,-317.32 1406.73,-312.36 1401.75,-312.84 1401.75,-312.84 1401.75,-312.84 1406.73,-312.36 1401.32,-308.36 1411.71,-311.89 1411.71,-311.89"/>
</g>
<!-- inkex.styles&#45;&gt;inkex.utils -->
<g id="edge106" class="edge">
<title>inkex.styles&#45;&gt;inkex.utils</title>
<path fill="none" stroke="black" d="M1029.24,-378.47C1170.19,-377.69 1563.79,-380.32 1680.5,-432 1701.77,-441.42 1697.34,-458.34 1718.5,-468 1803.17,-506.66 2079.94,-517.24 2199.57,-520.03"/>
<polygon fill="black" stroke="black" points="2209.63,-520.26 2199.53,-524.53 2204.63,-520.15 2199.63,-520.04 2199.63,-520.04 2199.63,-520.04 2204.63,-520.15 2199.73,-515.54 2209.63,-520.26 2209.63,-520.26"/>
</g>
<!-- inkex.tester -->
<g id="node48" class="node">
<title>inkex.tester</title>
<polygon fill="none" stroke="black" points="2532.5,-108 2430.5,-108 2430.5,-72 2532.5,-72 2532.5,-108"/>
<text text-anchor="middle" x="2481.5" y="-86.3" font-family="Times,serif" font-size="14.00">inkex.tester</text>
</g>
<!-- inkex.tester&#45;&gt;inkex.base -->
<g id="edge107" class="edge">
<title>inkex.tester&#45;&gt;inkex.base</title>
<path fill="none" stroke="black" d="M2529.43,-108.15C2546.8,-116.53 2565.17,-128.27 2577.5,-144 2602.78,-176.24 2601.5,-192.03 2601.5,-233 2601.5,-233 2601.5,-233 2601.5,-307 2601.5,-350.92 2575.74,-396.27 2556.9,-423.56"/>
<polygon fill="black" stroke="black" points="2551.07,-431.76 2553.2,-421 2553.97,-427.68 2556.87,-423.61 2556.87,-423.61 2556.87,-423.61 2553.97,-427.68 2560.54,-426.21 2551.07,-431.76 2551.07,-431.76"/>
</g>
<!-- inkex.tester&#45;&gt;inkex.extensions -->
<g id="edge108" class="edge">
<title>inkex.tester&#45;&gt;inkex.extensions</title>
<path fill="none" stroke="black" d="M2461.23,-108.3C2451,-117.03 2438.44,-127.76 2427.32,-137.25"/>
<polygon fill="black" stroke="black" points="2419.54,-143.9 2424.22,-133.98 2423.34,-140.65 2427.14,-137.4 2427.14,-137.4 2427.14,-137.4 2423.34,-140.65 2430.06,-140.83 2419.54,-143.9 2419.54,-143.9"/>
</g>
<!-- inkex.tester.filters -->
<g id="node50" class="node">
<title>inkex.tester.filters</title>
<polygon fill="none" stroke="black" points="2777,-180 2630,-180 2630,-144 2777,-144 2777,-180"/>
<text text-anchor="middle" x="2703.5" y="-158.3" font-family="Times,serif" font-size="14.00">inkex.tester.filters</text>
</g>
<!-- inkex.tester&#45;&gt;inkex.tester.filters -->
<g id="edge139" class="edge">
<title>inkex.tester&#45;&gt;inkex.tester.filters</title>
<path fill="none" stroke="black" stroke-dasharray="5,2" d="M2532.71,-107.15C2564.53,-117.18 2605.69,-130.16 2639.63,-140.86"/>
<polygon fill="black" stroke="black" points="2649.45,-143.96 2638.56,-145.24 2644.68,-142.45 2639.91,-140.95 2639.91,-140.95 2639.91,-140.95 2644.68,-142.45 2641.27,-136.66 2649.45,-143.96 2649.45,-143.96"/>
</g>
<!-- inkex.tester.mock -->
<g id="node52" class="node">
<title>inkex.tester.mock</title>
<polygon fill="none" stroke="black" points="2275,-180 2132,-180 2132,-144 2275,-144 2275,-180"/>
<text text-anchor="middle" x="2203.5" y="-158.3" font-family="Times,serif" font-size="14.00">inkex.tester.mock</text>
</g>
<!-- inkex.tester&#45;&gt;inkex.tester.mock -->
<g id="edge109" class="edge">
<title>inkex.tester&#45;&gt;inkex.tester.mock</title>
<path fill="none" stroke="black" d="M2430.19,-103.92C2388.37,-114.45 2328.66,-129.49 2281.01,-141.48"/>
<polygon fill="black" stroke="black" points="2271.04,-143.99 2279.64,-137.19 2275.89,-142.77 2280.74,-141.55 2280.74,-141.55 2280.74,-141.55 2275.89,-142.77 2281.84,-145.92 2271.04,-143.99 2271.04,-143.99"/>
</g>
<!-- inkex.tester.xmldiff -->
<g id="node56" class="node">
<title>inkex.tester.xmldiff</title>
<polygon fill="none" stroke="black" points="2233,-252 2078,-252 2078,-216 2233,-216 2233,-252"/>
<text text-anchor="middle" x="2155.5" y="-230.3" font-family="Times,serif" font-size="14.00">inkex.tester.xmldiff</text>
</g>
<!-- inkex.tester&#45;&gt;inkex.tester.xmldiff -->
<g id="edge110" class="edge">
<title>inkex.tester&#45;&gt;inkex.tester.xmldiff</title>
<path fill="none" stroke="black" d="M2430.46,-102.13C2398.06,-110.58 2356.07,-124.17 2322.5,-144 2302.19,-156 2303.37,-167.29 2283.5,-180 2263.29,-192.93 2239.4,-203.82 2217.76,-212.31"/>
<polygon fill="black" stroke="black" points="2208.32,-215.92 2216.06,-208.15 2212.99,-214.14 2217.66,-212.35 2217.66,-212.35 2217.66,-212.35 2212.99,-214.14 2219.27,-216.55 2208.32,-215.92 2208.32,-215.92"/>
</g>
<!-- inkex.tester&#45;&gt;inkex.utils -->
<g id="edge111" class="edge">
<title>inkex.tester&#45;&gt;inkex.utils</title>
<path fill="none" stroke="black" d="M2482.49,-108.03C2483.09,-126.17 2482.78,-155.57 2476.5,-180 2441.18,-317.47 2432.59,-361.73 2338.5,-468 2327.81,-480.08 2313.73,-490.45 2300.2,-498.73"/>
<polygon fill="black" stroke="black" points="2291.44,-503.87 2297.79,-494.93 2295.75,-501.34 2300.06,-498.81 2300.06,-498.81 2300.06,-498.81 2295.75,-501.34 2302.34,-502.7 2291.44,-503.87 2291.44,-503.87"/>
</g>
<!-- inkex.tester.decorators -->
<g id="node49" class="node">
<title>inkex.tester.decorators</title>
<polygon fill="none" stroke="black" points="2113.5,-180 1931.5,-180 1931.5,-144 2113.5,-144 2113.5,-180"/>
<text text-anchor="middle" x="2022.5" y="-158.3" font-family="Times,serif" font-size="14.00">inkex.tester.decorators</text>
</g>
<!-- inkex.tester.decorators&#45;&gt;inkex.command -->
<g id="edge112" class="edge">
<title>inkex.tester.decorators&#45;&gt;inkex.command</title>
<path fill="none" stroke="black" d="M2015.83,-180.3C2012.79,-188.19 2009.12,-197.7 2005.74,-206.45"/>
<polygon fill="black" stroke="black" points="2002.1,-215.9 2001.5,-204.95 2003.9,-211.23 2005.7,-206.57 2005.7,-206.57 2005.7,-206.57 2003.9,-211.23 2009.89,-208.19 2002.1,-215.9 2002.1,-215.9"/>
</g>
<!-- inkex.tester.inx -->
<g id="node51" class="node">
<title>inkex.tester.inx</title>
<polygon fill="none" stroke="black" points="2678,-108 2551,-108 2551,-72 2678,-72 2678,-108"/>
<text text-anchor="middle" x="2614.5" y="-86.3" font-family="Times,serif" font-size="14.00">inkex.tester.inx</text>
</g>
<!-- inkex.tester.inx&#45;&gt;inkex.tester.inx -->
<g id="edge113" class="edge">
<title>inkex.tester.inx&#45;&gt;inkex.tester.inx</title>
<path fill="none" stroke="black" d="M2678.06,-77.45C2688.67,-79.21 2696,-83.39 2696,-90 2696,-94.23 2692.99,-97.47 2688.04,-99.71"/>
<polygon fill="black" stroke="black" points="2678.06,-102.55 2686.45,-95.49 2682.87,-101.18 2687.68,-99.82 2687.68,-99.82 2687.68,-99.82 2682.87,-101.18 2688.91,-104.15 2678.06,-102.55 2678.06,-102.55"/>
</g>
<!-- inkex.tester.mock&#45;&gt;inkex.command -->
<g id="edge114" class="edge">
<title>inkex.tester.mock&#45;&gt;inkex.command</title>
<path fill="none" stroke="black" d="M2152.88,-180.03C2123.69,-189.86 2086.81,-202.27 2056.08,-212.61"/>
<polygon fill="black" stroke="black" points="2046.34,-215.89 2054.39,-208.43 2051.08,-214.29 2055.82,-212.7 2055.82,-212.7 2055.82,-212.7 2051.08,-214.29 2057.26,-216.96 2046.34,-215.89 2046.34,-215.89"/>
</g>
<!-- inkex.tester.svg -->
<g id="node53" class="node">
<title>inkex.tester.svg</title>
<polygon fill="none" stroke="black" points="1609.5,-36 1479.5,-36 1479.5,0 1609.5,0 1609.5,-36"/>
<text text-anchor="middle" x="1544.5" y="-14.3" font-family="Times,serif" font-size="14.00">inkex.tester.svg</text>
</g>
<!-- inkex.tester.svg&#45;&gt;inkex -->
<g id="edge115" class="edge">
<title>inkex.tester.svg&#45;&gt;inkex</title>
<path fill="none" stroke="black" d="M1544.5,-36.3C1544.5,-44.02 1544.5,-53.29 1544.5,-61.89"/>
<polygon fill="black" stroke="black" points="1544.5,-71.9 1540,-61.9 1544.5,-66.9 1544.5,-61.9 1544.5,-61.9 1544.5,-61.9 1544.5,-66.9 1549,-61.9 1544.5,-71.9 1544.5,-71.9"/>
</g>
<!-- inkex.tester.test_inx_file -->
<g id="node54" class="node">
<title>inkex.tester.test_inx_file</title>
<polygon fill="none" stroke="black" points="2709.5,-36 2519.5,-36 2519.5,0 2709.5,0 2709.5,-36"/>
<text text-anchor="middle" x="2614.5" y="-14.3" font-family="Times,serif" font-size="14.00">inkex.tester.test_inx_file</text>
</g>
<!-- inkex.tester.test_inx_file&#45;&gt;inkex.tester.inx -->
<g id="edge116" class="edge">
<title>inkex.tester.test_inx_file&#45;&gt;inkex.tester.inx</title>
<path fill="none" stroke="black" d="M2614.5,-36.3C2614.5,-44.02 2614.5,-53.29 2614.5,-61.89"/>
<polygon fill="black" stroke="black" points="2614.5,-71.9 2610,-61.9 2614.5,-66.9 2614.5,-61.9 2614.5,-61.9 2614.5,-61.9 2614.5,-66.9 2619,-61.9 2614.5,-71.9 2614.5,-71.9"/>
</g>
<!-- inkex.tester.word -->
<g id="node55" class="node">
<title>inkex.tester.word</title>
<polygon fill="none" stroke="black" points="2869,-36 2728,-36 2728,0 2869,0 2869,-36"/>
<text text-anchor="middle" x="2798.5" y="-14.3" font-family="Times,serif" font-size="14.00">inkex.tester.word</text>
</g>
<!-- inkex.tester.xmldiff&#45;&gt;inkex.paths -->
<g id="edge117" class="edge">
<title>inkex.tester.xmldiff&#45;&gt;inkex.paths</title>
<path fill="none" stroke="black" d="M2089.79,-252.06C1982.51,-279.91 1771.39,-334.71 1668.16,-361.51"/>
<polygon fill="black" stroke="black" points="1658.22,-364.09 1666.77,-357.22 1663.06,-362.84 1667.9,-361.58 1667.9,-361.58 1667.9,-361.58 1663.06,-362.84 1669.03,-365.94 1658.22,-364.09 1658.22,-364.09"/>
</g>
<!-- inkex.transforms&#45;&gt;inkex.tween -->
<g id="edge118" class="edge">
<title>inkex.transforms&#45;&gt;inkex.tween</title>
<path fill="none" stroke="black" d="M2016.73,-431.96C1990.65,-422.46 1957.28,-409.77 1928.5,-396 1900.1,-382.41 1897.25,-370.3 1867.5,-360 1751.34,-319.79 1606.18,-309.86 1525.2,-307.56"/>
<polygon fill="black" stroke="black" points="1515.17,-307.3 1525.28,-303.06 1520.17,-307.43 1525.17,-307.55 1525.17,-307.55 1525.17,-307.55 1520.17,-307.43 1525.05,-312.05 1515.17,-307.3 1515.17,-307.3"/>
</g>
<!-- inkex.transforms&#45;&gt;inkex.utils -->
<g id="edge119" class="edge">
<title>inkex.transforms&#45;&gt;inkex.utils</title>
<path fill="none" stroke="black" d="M2108.2,-468.12C2136.06,-478.12 2171.33,-490.79 2200.38,-501.21"/>
<polygon fill="black" stroke="black" points="2209.97,-504.65 2199.03,-505.51 2205.26,-502.97 2200.55,-501.28 2200.55,-501.28 2200.55,-501.28 2205.26,-502.97 2202.08,-497.04 2209.97,-504.65 2209.97,-504.65"/>
</g>
<!-- inkex.turtle -->
<g id="node58" class="node">
<title>inkex.turtle</title>
<polygon fill="none" stroke="black" points="1109.5,-324 1009.5,-324 1009.5,-288 1109.5,-288 1109.5,-324"/>
<text text-anchor="middle" x="1059.5" y="-302.3" font-family="Times,serif" font-size="14.00">inkex.turtle</text>
</g>
<!-- inkex.turtle&#45;&gt;inkex.elements -->
<g id="edge120" class="edge">
<title>inkex.turtle&#45;&gt;inkex.elements</title>
<path fill="none" stroke="black" d="M1065.83,-324.15C1079.55,-361.32 1112.13,-449.56 1128.6,-494.18"/>
<polygon fill="black" stroke="black" points="1132.14,-503.77 1124.45,-495.94 1130.41,-499.08 1128.68,-494.39 1128.68,-494.39 1128.68,-494.39 1130.41,-499.08 1132.9,-492.83 1132.14,-503.77 1132.14,-503.77"/>
</g>
<!-- inkex.turtle&#45;&gt;inkex.paths -->
<g id="edge121" class="edge">
<title>inkex.turtle&#45;&gt;inkex.paths</title>
<path fill="none" stroke="black" d="M1109.68,-313.4C1210.97,-326.31 1439.48,-355.45 1548.47,-369.35"/>
<polygon fill="black" stroke="black" points="1558.64,-370.64 1548.15,-373.84 1553.68,-370.01 1548.72,-369.38 1548.72,-369.38 1548.72,-369.38 1553.68,-370.01 1549.29,-364.91 1558.64,-370.64 1558.64,-370.64"/>
</g>
<!-- inkex.turtle&#45;&gt;inkex.styles -->
<g id="edge122" class="edge">
<title>inkex.turtle&#45;&gt;inkex.styles</title>
<path fill="none" stroke="black" d="M1039.48,-324.3C1029.37,-333.03 1016.96,-343.76 1005.98,-353.25"/>
<polygon fill="black" stroke="black" points="998.29,-359.9 1002.92,-349.95 1002.08,-356.63 1005.86,-353.36 1005.86,-353.36 1005.86,-353.36 1002.08,-356.63 1008.8,-356.76 998.29,-359.9 998.29,-359.9"/>
</g>
<!-- inkex.tween&#45;&gt;inkex.bezier -->
<g id="edge123" class="edge">
<title>inkex.tween&#45;&gt;inkex.bezier</title>
<path fill="none" stroke="black" d="M1515.25,-310.79C1599.45,-317.48 1771.13,-333.24 1914.5,-360 1915.78,-360.24 1917.06,-360.49 1918.36,-360.75"/>
<polygon fill="black" stroke="black" points="1928.41,-362.89 1917.69,-365.2 1923.52,-361.85 1918.63,-360.8 1918.63,-360.8 1918.63,-360.8 1923.52,-361.85 1919.57,-356.4 1928.41,-362.89 1928.41,-362.89"/>
</g>
<!-- inkex.tween&#45;&gt;inkex.colors -->
<g id="edge124" class="edge">
<title>inkex.tween&#45;&gt;inkex.colors</title>
<path fill="none" stroke="black" d="M1469.4,-287.9C1470.2,-280.21 1470.44,-270.95 1470.1,-262.33"/>
<polygon fill="black" stroke="black" points="1469.42,-252.3 1474.59,-261.97 1469.76,-257.29 1470.1,-262.28 1470.1,-262.28 1470.1,-262.28 1469.76,-257.29 1465.61,-262.59 1469.42,-252.3 1469.42,-252.3"/>
</g>
<!-- inkex.tween&#45;&gt;inkex.elements -->
<g id="edge125" class="edge">
<title>inkex.tween&#45;&gt;inkex.elements</title>
<path fill="none" stroke="black" d="M1436.86,-324.03C1399.54,-347.95 1329.62,-392.93 1270.5,-432 1236.94,-454.18 1198.87,-479.91 1172.27,-497.98"/>
<polygon fill="black" stroke="black" points="1163.71,-503.8 1169.45,-494.45 1167.85,-500.99 1171.98,-498.18 1171.98,-498.18 1171.98,-498.18 1167.85,-500.99 1174.51,-501.9 1163.71,-503.8 1163.71,-503.8"/>
</g>
<!-- inkex.tween&#45;&gt;inkex.elements._filters -->
<g id="edge126" class="edge">
<title>inkex.tween&#45;&gt;inkex.elements._filters</title>
<path fill="none" stroke="black" d="M1414.03,-324.01C1335.08,-352.71 1178.17,-416.35 1066.5,-504 1042.47,-522.86 1019.1,-548.81 1003.32,-567.82"/>
<polygon fill="black" stroke="black" points="996.83,-575.76 999.68,-565.17 1000,-571.89 1003.16,-568.02 1003.16,-568.02 1003.16,-568.02 1000,-571.89 1006.65,-570.87 996.83,-575.76 996.83,-575.76"/>
</g>
<!-- inkex.tween&#45;&gt;inkex.paths -->
<g id="edge127" class="edge">
<title>inkex.tween&#45;&gt;inkex.paths</title>
<path fill="none" stroke="black" d="M1498.97,-324.12C1518.62,-333.61 1543.22,-345.49 1564.13,-355.58"/>
<polygon fill="black" stroke="black" points="1573.14,-359.93 1562.18,-359.64 1568.64,-357.76 1564.14,-355.58 1564.14,-355.58 1564.14,-355.58 1568.64,-357.76 1566.1,-351.53 1573.14,-359.93 1573.14,-359.93"/>
</g>
<!-- inkex.tween&#45;&gt;inkex.styles -->
<g id="edge128" class="edge">
<title>inkex.tween&#45;&gt;inkex.styles</title>
<path fill="none" stroke="black" d="M1411.68,-310.85C1332.39,-317.6 1176.61,-333.27 1039.15,-359.17"/>
<polygon fill="black" stroke="black" points="1029.29,-361.05 1038.27,-354.75 1034.2,-360.11 1039.11,-359.18 1039.11,-359.18 1039.11,-359.18 1034.2,-360.11 1039.96,-363.6 1029.29,-361.05 1029.29,-361.05"/>
</g>
<!-- inkex.tween&#45;&gt;inkex.transforms -->
<g id="edge129" class="edge">
<title>inkex.tween&#45;&gt;inkex.transforms</title>
<path fill="none" stroke="black" d="M1515,-307.61C1590.47,-310.02 1734.26,-320.11 1849.5,-360 1879.25,-370.3 1882.1,-382.41 1910.5,-396 1936.02,-408.21 1965.15,-419.57 1990.96,-428.61"/>
<polygon fill="black" stroke="black" points="2000.68,-431.96 1989.76,-432.95 1995.95,-430.33 1991.22,-428.7 1991.22,-428.7 1991.22,-428.7 1995.95,-430.33 1992.69,-424.45 2000.68,-431.96 2000.68,-431.96"/>
</g>
<!-- inkex.tween&#45;&gt;inkex.units -->
<g id="edge130" class="edge">
<title>inkex.tween&#45;&gt;inkex.units</title>
<path fill="none" stroke="black" d="M1461.78,-324.11C1459.24,-353.74 1455.75,-416.36 1465.5,-468 1467.16,-476.79 1470.17,-486.03 1473.35,-494.29"/>
<polygon fill="black" stroke="black" points="1477.25,-503.78 1469.29,-496.24 1475.35,-499.15 1473.45,-494.53 1473.45,-494.53 1473.45,-494.53 1475.35,-499.15 1477.61,-492.82 1477.25,-503.78 1477.25,-503.78"/>
</g>
<!-- inkex.tween&#45;&gt;inkex.utils -->
<g id="edge131" class="edge">
<title>inkex.tween&#45;&gt;inkex.utils</title>
<path fill="none" stroke="black" d="M1515.34,-320.09C1556.43,-330.57 1615.25,-345.81 1666.5,-360 1776.29,-390.39 1806.7,-389.76 1912.5,-432 1944.99,-444.97 1949.44,-456.55 1982.5,-468 2055.3,-493.21 2143.41,-507.58 2199.46,-514.84"/>
<polygon fill="black" stroke="black" points="2209.54,-516.11 2199.06,-519.32 2204.58,-515.48 2199.62,-514.86 2199.62,-514.86 2199.62,-514.86 2204.58,-515.48 2200.19,-510.39 2209.54,-516.11 2209.54,-516.11"/>
</g>
</g>
</svg>
