<?xml version="1.0" encoding="UTF-8" standalone="no"?>
<!-- Created with Inkscape (http://www.inkscape.org/) -->

<svg
   width="210mm"
   height="297mm"
   viewBox="0 0 210 297"
   version="1.1"
   id="svg1"
   inkscape:version="1.3.2 (091e20e, 2023-11-25, custom)"
   sodipodi:docname="testshape.svg"
   xmlns:inkscape="http://www.inkscape.org/namespaces/inkscape"
   xmlns:sodipodi="http://sodipodi.sourceforge.net/DTD/sodipodi-0.dtd"
   xmlns="http://www.w3.org/2000/svg"
   xmlns:svg="http://www.w3.org/2000/svg">
  <sodipodi:namedview
     id="namedview1"
     pagecolor="#ffffff"
     bordercolor="#000000"
     borderopacity="0.25"
     inkscape:showpageshadow="2"
     inkscape:pageopacity="0.0"
     inkscape:pagecheckerboard="0"
     inkscape:deskcolor="#d1d1d1"
     inkscape:document-units="mm"
     inkscape:zoom="1.0449705"
     inkscape:cx="396.6619"
     inkscape:cy="637.81702"
     inkscape:window-width="1350"
     inkscape:window-height="1237"
     inkscape:window-x="1985"
     inkscape:window-y="157"
     inkscape:window-maximized="0"
     inkscape:current-layer="layer1" />
  <defs
     id="defs1" />
  <g
     inkscape:label="Layer 1"
     inkscape:groupmode="layer"
     id="layer1">
    <path
       id="rect1"
       style="fill:#ff0000;stroke:#000000;stroke-width:0.46011;stroke-dasharray:none"
       d="M 81.909212 88.872095 A 19.875959 6.3299232 0 0 0 62.033423 95.201941 A 19.875959 6.3299232 0 0 0 62.05151 95.297542 A 36.840157 13.039645 0 0 0 45.322298 106.21626 A 36.840157 13.039645 0 0 0 45.47371 107.10251 L 44.815869 107.10251 L 44.815869 159.76751 L 119.00256 159.76751 L 119.00256 107.10251 L 118.85114 107.10251 A 36.840157 13.039645 0 0 0 119.00256 106.21626 A 36.840157 13.039645 0 0 0 101.78397 95.182304 A 19.875959 6.3299232 0 0 0 81.909212 88.872095 z " />
  </g>
</svg>
