<svg xmlns="http://www.w3.org/2000/svg" xmlns:shaper="http://www.shapertools.com/namespaces/shaper" width="74.18669100000002mm" height="70.895415mm" viewBox="-37.09334550000001 -35.44770750000001 74.18669100000002 70.895415"> <g id="sg-5e63fc37-8cff-4274-b5cf-79ffe373719b"  transform="matrix(1 0 0 1 0 0)">
  <path id="basePath-sg-5e63fc37-8cff-4274-b5cf-79ffe373719b-pg-c91dd252-4309-4a2d-a885-20745ed3f390"  stroke-width="0.1" fill="#000000" transform="matrix(1 0 0 1 0 0)" shaper:cutType="outside" shaper:cutDepth="0.125in" shaper:cutOffset="0in" shaper:toolDia="0.125in" d = "M -0.0000025000000078989615 -35.44770750000001 L -1.0228016763017678 -35.43946848842606 -3.026870454014471 -35.374766327671324 -4.967241157095685 -35.24841667910452 -6.833923415812848 -35.06360117752217 -8.616926860433395 -34.823501457720766 -10.30626112122475 -34.53129915449678 -11.89193582845435 -34.1901759026467 -13.363960612389675 -33.80331333696705 -14.71234510329812 -33.37389309225432 -15.927098931447134 -32.90509680330497 -16.998231727104198 -32.40010610491552 -17.915753120536706 -31.862102631882465 -18.669672742012104 -31.29426801900229 -19.121738963479558 -30.850729325999737 -19.366787573152237 -30.547371734252337 -19.565316156861073 -30.23834602711618 -19.716075918389492 -29.924049908940816 -19.81781806152094 -29.604881084075856 -19.869293790038824 -29.28123725687081 -19.875791500000012 -29.117861500000004 -19.87169558878076 -29.093953207428427 -19.86265204025615 -29.04615245094584 -19.857704500000004 -29.02226050000006 -20.8233485071853 -28.79181508150083 -22.68033372092235 -28.302038101093345 -24.435625248879788 -27.775458412096597 -26.086075149135702 -27.214130593657828 -27.628535479768217 -26.620109224924335 -29.059858298855445 -25.99544888504336 -30.37689566447552 -25.3422041531622 -31.57649963470653 -24.662429608428084 -32.65552226762658 -23.958179829988325 -33.610815621313805 -23.231509396990205 -34.439231753846315 -22.484472888580953 -35.137622723302194 -21.71912488390784 -35.70284058775959 -20.93751996211816 -36.13173740529658 -20.141712702359186 -36.42116523399132 -19.333757683778174 -36.56797613192189 -18.515709485522407 -36.586916500000015 -18.103542500000003 -36.565055544702425 -17.881661885553328 -36.489341313570584 -17.438488706805387 -36.43550449999998 -17.21729249999987 -37.09334550000001 -17.2172925 -37.09334550000001 35.44770749999999 37.09334550000001 35.44770749999999 37.09334550000001 -17.2172925 36.94192550000001 -17.2172925 36.99576431643118 -17.438488688649628 37.07148254800107 -17.88166186741607 37.0933455 -18.103542499999975 37.08849082439431 -18.313345548117425 37.05042735282328 -18.731436470421144 36.92323214832933 -19.354281683467136 36.62498406488095 -20.17532272313501 36.18277370317966 -20.98363070179218 35.599951692609565 -21.77705848095657 34.87986866255477 -22.55345892214605 34.025875242399295 -23.31068488687852 33.041322061527325 -24.046589236671835 31.92955974932292 -24.759024833043938 30.69393893517018 -25.4458445375127 29.33781024845318 -26.104901211595973 27.864524318555993 -26.734047716811673 26.277431774862762 -27.331136914677685 24.57988324675756 -27.894021666711893 22.775229363624476 -28.42055483443218 20.866820754847595 -28.90858927935645 19.87475550002526 -29.137498499994393 19.8666976131573 -29.300505648377978 19.812294493392045 -29.62339528993985 19.707877560460673 -29.941789801812433 19.554689992210825 -30.25529447669699 19.353974966490142 -30.563514607294792 19.106975661146222 -30.866055486307204 18.652413130378477 -31.30835478588716 17.895937770584737 -31.874525869990123 16.976702493555422 -32.41087521637456 15.904652722071575 -32.91424516665077 14.689733878914168 -33.381478062429096 13.341891386864233 -33.809416245319795 11.871070668702828 -34.19490205693327 10.287217147210967 -34.53477783887979 8.600276245169667 -34.825885932769694 6.820193385359971 -35.06506868021327 4.956913990562882 -35.249168422820844 3.020383483559442 -35.37502750220274 1.0205472871306398 -35.43948825996928 Z " />
</g> </svg>